<mxfile host="app.diagrams.net" agent="Mozilla/5.0 (Windows NT 10.0; Win64; x64) AppleWebKit/537.36 (KHTML, like Gecko) Chrome/132.0.0.0 Safari/537.36" version="26.0.12">
  <diagram name="Page-1" id="wfg4Ox6ZjYDO8Z0fX0Y1">
    <mxGraphModel dx="1194" dy="652" grid="1" gridSize="10" guides="1" tooltips="1" connect="1" arrows="1" fold="1" page="1" pageScale="1" pageWidth="2339" pageHeight="3300" math="0" shadow="0">
      <root>
        <mxCell id="0" />
        <mxCell id="1" parent="0" />
        <mxCell id="jN3R8YaWKuL3tQfENFTa-253" value="" style="endArrow=none;html=1;rounded=0;exitX=1;exitY=0.5;exitDx=0;exitDy=0;entryX=0;entryY=0.5;entryDx=0;entryDy=0;" parent="1" source="jN3R8YaWKuL3tQfENFTa-38" target="jN3R8YaWKuL3tQfENFTa-136" edge="1">
          <mxGeometry width="50" height="50" relative="1" as="geometry">
            <mxPoint x="760" y="630" as="sourcePoint" />
            <mxPoint x="810" y="580" as="targetPoint" />
          </mxGeometry>
        </mxCell>
        <mxCell id="jN3R8YaWKuL3tQfENFTa-252" value="" style="endArrow=none;html=1;rounded=0;entryX=1;entryY=0.5;entryDx=0;entryDy=0;exitX=0;exitY=0.5;exitDx=0;exitDy=0;" parent="1" source="jN3R8YaWKuL3tQfENFTa-136" target="jN3R8YaWKuL3tQfENFTa-37" edge="1">
          <mxGeometry width="50" height="50" relative="1" as="geometry">
            <mxPoint x="760" y="630" as="sourcePoint" />
            <mxPoint x="810" y="580" as="targetPoint" />
          </mxGeometry>
        </mxCell>
        <mxCell id="jN3R8YaWKuL3tQfENFTa-249" value="" style="endArrow=none;html=1;rounded=0;exitX=0.5;exitY=1;exitDx=0;exitDy=0;entryX=0.5;entryY=0;entryDx=0;entryDy=0;" parent="1" source="jN3R8YaWKuL3tQfENFTa-136" target="jN3R8YaWKuL3tQfENFTa-21" edge="1">
          <mxGeometry width="50" height="50" relative="1" as="geometry">
            <mxPoint x="760" y="550" as="sourcePoint" />
            <mxPoint x="810" y="500" as="targetPoint" />
          </mxGeometry>
        </mxCell>
        <mxCell id="jN3R8YaWKuL3tQfENFTa-243" value="" style="endArrow=none;html=1;rounded=0;entryX=1;entryY=0.5;entryDx=0;entryDy=0;exitX=0;exitY=0.5;exitDx=0;exitDy=0;" parent="1" source="jN3R8YaWKuL3tQfENFTa-135" target="jN3R8YaWKuL3tQfENFTa-21" edge="1">
          <mxGeometry width="50" height="50" relative="1" as="geometry">
            <mxPoint x="760" y="550" as="sourcePoint" />
            <mxPoint x="810" y="500" as="targetPoint" />
          </mxGeometry>
        </mxCell>
        <mxCell id="jN3R8YaWKuL3tQfENFTa-232" value="" style="endArrow=none;html=1;rounded=0;entryX=0;entryY=0.5;entryDx=0;entryDy=0;exitX=1;exitY=0.5;exitDx=0;exitDy=0;" parent="1" source="jN3R8YaWKuL3tQfENFTa-20" target="jN3R8YaWKuL3tQfENFTa-133" edge="1">
          <mxGeometry width="50" height="50" relative="1" as="geometry">
            <mxPoint x="760" y="550" as="sourcePoint" />
            <mxPoint x="810" y="500" as="targetPoint" />
          </mxGeometry>
        </mxCell>
        <mxCell id="jN3R8YaWKuL3tQfENFTa-209" value="" style="endArrow=none;html=1;rounded=0;entryX=0;entryY=0.5;entryDx=0;entryDy=0;exitX=1;exitY=0.5;exitDx=0;exitDy=0;" parent="1" source="jN3R8YaWKuL3tQfENFTa-20" target="jN3R8YaWKuL3tQfENFTa-132" edge="1">
          <mxGeometry width="50" height="50" relative="1" as="geometry">
            <mxPoint x="480" y="45" as="sourcePoint" />
            <mxPoint x="1135" y="195" as="targetPoint" />
          </mxGeometry>
        </mxCell>
        <mxCell id="jN3R8YaWKuL3tQfENFTa-203" value="" style="endArrow=none;html=1;rounded=0;entryX=0;entryY=0.5;entryDx=0;entryDy=0;exitX=1;exitY=0.5;exitDx=0;exitDy=0;" parent="1" source="jN3R8YaWKuL3tQfENFTa-9" target="jN3R8YaWKuL3tQfENFTa-132" edge="1">
          <mxGeometry width="50" height="50" relative="1" as="geometry">
            <mxPoint x="650" y="865" as="sourcePoint" />
            <mxPoint x="1125" y="185" as="targetPoint" />
          </mxGeometry>
        </mxCell>
        <mxCell id="jN3R8YaWKuL3tQfENFTa-202" value="" style="endArrow=none;html=1;rounded=0;entryX=0;entryY=0.5;entryDx=0;entryDy=0;exitX=1;exitY=0.5;exitDx=0;exitDy=0;" parent="1" source="jN3R8YaWKuL3tQfENFTa-28" target="jN3R8YaWKuL3tQfENFTa-132" edge="1">
          <mxGeometry width="50" height="50" relative="1" as="geometry">
            <mxPoint x="760" y="470" as="sourcePoint" />
            <mxPoint x="810" y="420" as="targetPoint" />
          </mxGeometry>
        </mxCell>
        <mxCell id="jN3R8YaWKuL3tQfENFTa-10" value="&lt;font color=&quot;#3465a4&quot;&gt;m_parameters&lt;/font&gt;" style="rounded=0;whiteSpace=wrap;html=1;" parent="1" vertex="1">
          <mxGeometry x="50" y="20" width="100" height="30" as="geometry" />
        </mxCell>
        <mxCell id="jN3R8YaWKuL3tQfENFTa-11" value="&lt;font color=&quot;#3465a4&quot;&gt;m_system&lt;/font&gt;" style="rounded=0;whiteSpace=wrap;html=1;" parent="1" vertex="1">
          <mxGeometry x="50" y="60" width="100" height="30" as="geometry" />
        </mxCell>
        <mxCell id="jN3R8YaWKuL3tQfENFTa-12" value="&lt;font color=&quot;#3465a4&quot;&gt;m_node_conf&lt;/font&gt;" style="rounded=0;whiteSpace=wrap;html=1;" parent="1" vertex="1">
          <mxGeometry x="50" y="100" width="100" height="30" as="geometry" />
        </mxCell>
        <mxCell id="jN3R8YaWKuL3tQfENFTa-13" value="&lt;font color=&quot;#3465a4&quot;&gt;m_random&lt;/font&gt;" style="rounded=0;whiteSpace=wrap;html=1;" parent="1" vertex="1">
          <mxGeometry x="50" y="140" width="100" height="30" as="geometry" />
        </mxCell>
        <mxCell id="jN3R8YaWKuL3tQfENFTa-14" value="&lt;font color=&quot;#3465a4&quot;&gt;m_vdf_define&lt;/font&gt;" style="rounded=0;whiteSpace=wrap;html=1;" parent="1" vertex="1">
          <mxGeometry x="50" y="310" width="100" height="30" as="geometry" />
        </mxCell>
        <mxCell id="jN3R8YaWKuL3tQfENFTa-15" value="&lt;font color=&quot;#3465a4&quot;&gt;m_vdf&lt;/font&gt;" style="rounded=0;whiteSpace=wrap;html=1;" parent="1" vertex="1">
          <mxGeometry x="50" y="270" width="100" height="30" as="geometry" />
        </mxCell>
        <mxCell id="jN3R8YaWKuL3tQfENFTa-19" value="" style="endArrow=none;html=1;rounded=0;entryX=0;entryY=0.5;entryDx=0;entryDy=0;exitX=1;exitY=0.5;exitDx=0;exitDy=0;dashed=1;strokeColor=#3465a4;" parent="1" source="jN3R8YaWKuL3tQfENFTa-10" target="jN3R8YaWKuL3tQfENFTa-9" edge="1">
          <mxGeometry width="50" height="50" relative="1" as="geometry">
            <mxPoint x="170" y="255" as="sourcePoint" />
            <mxPoint x="180" y="300" as="targetPoint" />
          </mxGeometry>
        </mxCell>
        <mxCell id="jN3R8YaWKuL3tQfENFTa-22" value="" style="endArrow=none;html=1;rounded=0;exitX=0.5;exitY=1;exitDx=0;exitDy=0;entryX=0.5;entryY=0;entryDx=0;entryDy=0;" parent="1" source="jN3R8YaWKuL3tQfENFTa-38" target="jN3R8YaWKuL3tQfENFTa-20" edge="1">
          <mxGeometry width="50" height="50" relative="1" as="geometry">
            <mxPoint x="520" y="330" as="sourcePoint" />
            <mxPoint x="510" y="270" as="targetPoint" />
          </mxGeometry>
        </mxCell>
        <mxCell id="jN3R8YaWKuL3tQfENFTa-25" value="" style="endArrow=none;html=1;rounded=0;entryX=0;entryY=0.5;entryDx=0;entryDy=0;exitX=1;exitY=0.5;exitDx=0;exitDy=0;" parent="1" source="jN3R8YaWKuL3tQfENFTa-20" target="jN3R8YaWKuL3tQfENFTa-24" edge="1">
          <mxGeometry width="50" height="50" relative="1" as="geometry">
            <mxPoint x="530" y="310" as="sourcePoint" />
            <mxPoint x="580" y="260" as="targetPoint" />
          </mxGeometry>
        </mxCell>
        <mxCell id="jN3R8YaWKuL3tQfENFTa-26" value="m_species_define" style="rounded=0;whiteSpace=wrap;html=1;" parent="1" vertex="1">
          <mxGeometry x="50" y="750" width="100" height="30" as="geometry" />
        </mxCell>
        <mxCell id="jN3R8YaWKuL3tQfENFTa-27" value="m_psource_udist" style="rounded=0;whiteSpace=wrap;html=1;" parent="1" vertex="1">
          <mxGeometry x="50" y="610" width="100" height="30" as="geometry" />
        </mxCell>
        <mxCell id="jN3R8YaWKuL3tQfENFTa-29" value="m_space" style="rounded=0;whiteSpace=wrap;html=1;" parent="1" vertex="1">
          <mxGeometry x="50" y="440" width="100" height="30" as="geometry" />
        </mxCell>
        <mxCell id="jN3R8YaWKuL3tQfENFTa-30" value="m_grid_define" style="rounded=0;whiteSpace=wrap;html=1;" parent="1" vertex="1">
          <mxGeometry x="50" y="400" width="100" height="30" as="geometry" />
        </mxCell>
        <mxCell id="jN3R8YaWKuL3tQfENFTa-31" value="m_restart" style="rounded=0;whiteSpace=wrap;html=1;" parent="1" vertex="1">
          <mxGeometry x="50" y="700" width="100" height="30" as="geometry" />
        </mxCell>
        <mxCell id="jN3R8YaWKuL3tQfENFTa-32" value="m_timestep" style="rounded=0;whiteSpace=wrap;html=1;" parent="1" vertex="1">
          <mxGeometry x="50" y="480" width="100" height="30" as="geometry" />
        </mxCell>
        <mxCell id="jN3R8YaWKuL3tQfENFTa-33" value="m_emf_define" style="rounded=0;whiteSpace=wrap;html=1;" parent="1" vertex="1">
          <mxGeometry x="50" y="570" width="100" height="30" as="geometry" />
        </mxCell>
        <mxCell id="jN3R8YaWKuL3tQfENFTa-34" value="m_input_file" style="rounded=0;whiteSpace=wrap;html=1;" parent="1" vertex="1">
          <mxGeometry x="50" y="220" width="100" height="30" as="geometry" />
        </mxCell>
        <mxCell id="jN3R8YaWKuL3tQfENFTa-36" value="m_math" style="rounded=0;whiteSpace=wrap;html=1;" parent="1" vertex="1">
          <mxGeometry x="50" y="180" width="100" height="30" as="geometry" />
        </mxCell>
        <mxCell id="jN3R8YaWKuL3tQfENFTa-39" value="m_species_charge" style="rounded=0;whiteSpace=wrap;html=1;" parent="1" vertex="1">
          <mxGeometry x="50" y="830" width="110" height="30" as="geometry" />
        </mxCell>
        <mxCell id="jN3R8YaWKuL3tQfENFTa-40" value="" style="endArrow=none;html=1;rounded=0;entryX=0;entryY=0.5;entryDx=0;entryDy=0;exitX=1;exitY=0.5;exitDx=0;exitDy=0;dashed=1;strokeColor=#3465a4;" parent="1" source="jN3R8YaWKuL3tQfENFTa-11" target="jN3R8YaWKuL3tQfENFTa-9" edge="1">
          <mxGeometry width="50" height="50" relative="1" as="geometry">
            <mxPoint x="160" y="95" as="sourcePoint" />
            <mxPoint x="340" y="175" as="targetPoint" />
          </mxGeometry>
        </mxCell>
        <mxCell id="jN3R8YaWKuL3tQfENFTa-41" value="" style="endArrow=none;html=1;rounded=0;entryX=0;entryY=0.5;entryDx=0;entryDy=0;exitX=1;exitY=0.5;exitDx=0;exitDy=0;dashed=1;strokeColor=#3465a4;" parent="1" source="jN3R8YaWKuL3tQfENFTa-12" target="jN3R8YaWKuL3tQfENFTa-9" edge="1">
          <mxGeometry width="50" height="50" relative="1" as="geometry">
            <mxPoint x="160" y="135" as="sourcePoint" />
            <mxPoint x="340" y="175" as="targetPoint" />
          </mxGeometry>
        </mxCell>
        <mxCell id="jN3R8YaWKuL3tQfENFTa-42" value="" style="endArrow=none;html=1;rounded=0;entryX=0;entryY=0.5;entryDx=0;entryDy=0;exitX=1;exitY=0.5;exitDx=0;exitDy=0;dashed=1;strokeColor=#3465a4;" parent="1" source="jN3R8YaWKuL3tQfENFTa-13" target="jN3R8YaWKuL3tQfENFTa-9" edge="1">
          <mxGeometry width="50" height="50" relative="1" as="geometry">
            <mxPoint x="170" y="145" as="sourcePoint" />
            <mxPoint x="350" y="185" as="targetPoint" />
          </mxGeometry>
        </mxCell>
        <mxCell id="jN3R8YaWKuL3tQfENFTa-43" value="" style="endArrow=none;html=1;rounded=0;entryX=0;entryY=0.5;entryDx=0;entryDy=0;exitX=1;exitY=0.5;exitDx=0;exitDy=0;dashed=1;strokeColor=#3465a4;" parent="1" source="jN3R8YaWKuL3tQfENFTa-14" target="jN3R8YaWKuL3tQfENFTa-9" edge="1">
          <mxGeometry width="50" height="50" relative="1" as="geometry">
            <mxPoint x="180" y="155" as="sourcePoint" />
            <mxPoint x="360" y="195" as="targetPoint" />
          </mxGeometry>
        </mxCell>
        <mxCell id="jN3R8YaWKuL3tQfENFTa-44" value="" style="endArrow=none;html=1;rounded=0;entryX=0;entryY=0.5;entryDx=0;entryDy=0;exitX=1;exitY=0.5;exitDx=0;exitDy=0;dashed=1;strokeColor=#3465a4;" parent="1" source="jN3R8YaWKuL3tQfENFTa-15" target="jN3R8YaWKuL3tQfENFTa-9" edge="1">
          <mxGeometry width="50" height="50" relative="1" as="geometry">
            <mxPoint x="190" y="165" as="sourcePoint" />
            <mxPoint x="370" y="205" as="targetPoint" />
          </mxGeometry>
        </mxCell>
        <mxCell id="jN3R8YaWKuL3tQfENFTa-45" value="" style="endArrow=none;html=1;rounded=0;entryX=1;entryY=0.5;entryDx=0;entryDy=0;exitX=0;exitY=0.5;exitDx=0;exitDy=0;" parent="1" source="jN3R8YaWKuL3tQfENFTa-35" target="jN3R8YaWKuL3tQfENFTa-37" edge="1">
          <mxGeometry width="50" height="50" relative="1" as="geometry">
            <mxPoint x="330" y="175" as="sourcePoint" />
            <mxPoint x="510" y="215" as="targetPoint" />
          </mxGeometry>
        </mxCell>
        <mxCell id="jN3R8YaWKuL3tQfENFTa-46" value="" style="endArrow=none;html=1;rounded=0;entryX=0;entryY=0.5;entryDx=0;entryDy=0;exitX=1;exitY=0.5;exitDx=0;exitDy=0;" parent="1" source="jN3R8YaWKuL3tQfENFTa-38" target="jN3R8YaWKuL3tQfENFTa-35" edge="1">
          <mxGeometry width="50" height="50" relative="1" as="geometry">
            <mxPoint x="340" y="265" as="sourcePoint" />
            <mxPoint x="520" y="305" as="targetPoint" />
          </mxGeometry>
        </mxCell>
        <mxCell id="jN3R8YaWKuL3tQfENFTa-49" value="" style="endArrow=none;html=1;rounded=0;exitX=1;exitY=0.5;exitDx=0;exitDy=0;strokeColor=#000000;entryX=0;entryY=0.5;entryDx=0;entryDy=0;" parent="1" source="jN3R8YaWKuL3tQfENFTa-9" target="jN3R8YaWKuL3tQfENFTa-35" edge="1">
          <mxGeometry width="50" height="50" relative="1" as="geometry">
            <mxPoint x="160" y="95" as="sourcePoint" />
            <mxPoint x="330" y="290" as="targetPoint" />
          </mxGeometry>
        </mxCell>
        <mxCell id="jN3R8YaWKuL3tQfENFTa-50" value="" style="endArrow=none;html=1;rounded=0;dashed=1;strokeColor=#3465a4;exitX=1;exitY=0.5;exitDx=0;exitDy=0;entryX=0;entryY=0.5;entryDx=0;entryDy=0;" parent="1" source="jN3R8YaWKuL3tQfENFTa-11" target="jN3R8YaWKuL3tQfENFTa-35" edge="1">
          <mxGeometry width="50" height="50" relative="1" as="geometry">
            <mxPoint x="150" y="130" as="sourcePoint" />
            <mxPoint x="330" y="290" as="targetPoint" />
          </mxGeometry>
        </mxCell>
        <mxCell id="jN3R8YaWKuL3tQfENFTa-51" value="" style="endArrow=none;html=1;rounded=0;exitX=1;exitY=0.5;exitDx=0;exitDy=0;dashed=1;strokeColor=#3465a4;entryX=0;entryY=0.5;entryDx=0;entryDy=0;" parent="1" source="jN3R8YaWKuL3tQfENFTa-14" target="jN3R8YaWKuL3tQfENFTa-35" edge="1">
          <mxGeometry width="50" height="50" relative="1" as="geometry">
            <mxPoint x="160" y="255" as="sourcePoint" />
            <mxPoint x="330" y="290" as="targetPoint" />
          </mxGeometry>
        </mxCell>
        <mxCell id="jN3R8YaWKuL3tQfENFTa-52" value="" style="endArrow=none;html=1;rounded=0;exitX=1;exitY=0.5;exitDx=0;exitDy=0;dashed=1;strokeColor=#3465a4;entryX=0;entryY=0.5;entryDx=0;entryDy=0;" parent="1" source="jN3R8YaWKuL3tQfENFTa-26" target="jN3R8YaWKuL3tQfENFTa-35" edge="1">
          <mxGeometry width="50" height="50" relative="1" as="geometry">
            <mxPoint x="170" y="265" as="sourcePoint" />
            <mxPoint x="330" y="290" as="targetPoint" />
          </mxGeometry>
        </mxCell>
        <mxCell id="jN3R8YaWKuL3tQfENFTa-53" value="" style="endArrow=none;html=1;rounded=0;exitX=1;exitY=0.5;exitDx=0;exitDy=0;dashed=1;strokeColor=#3465a4;entryX=0;entryY=0.5;entryDx=0;entryDy=0;" parent="1" source="jN3R8YaWKuL3tQfENFTa-39" target="jN3R8YaWKuL3tQfENFTa-35" edge="1">
          <mxGeometry width="50" height="50" relative="1" as="geometry">
            <mxPoint x="180" y="275" as="sourcePoint" />
            <mxPoint x="330" y="290" as="targetPoint" />
          </mxGeometry>
        </mxCell>
        <mxCell id="jN3R8YaWKuL3tQfENFTa-54" value="" style="endArrow=none;html=1;rounded=0;exitX=1;exitY=0.5;exitDx=0;exitDy=0;dashed=1;strokeColor=#3465a4;entryX=0;entryY=0.5;entryDx=0;entryDy=0;" parent="1" source="jN3R8YaWKuL3tQfENFTa-36" target="jN3R8YaWKuL3tQfENFTa-35" edge="1">
          <mxGeometry width="50" height="50" relative="1" as="geometry">
            <mxPoint x="190" y="285" as="sourcePoint" />
            <mxPoint x="330" y="290" as="targetPoint" />
          </mxGeometry>
        </mxCell>
        <mxCell id="jN3R8YaWKuL3tQfENFTa-55" value="" style="endArrow=none;html=1;rounded=0;exitX=0.5;exitY=0;exitDx=0;exitDy=0;entryX=0;entryY=0.5;entryDx=0;entryDy=0;" parent="1" source="jN3R8YaWKuL3tQfENFTa-20" target="jN3R8YaWKuL3tQfENFTa-35" edge="1">
          <mxGeometry width="50" height="50" relative="1" as="geometry">
            <mxPoint x="510" y="510" as="sourcePoint" />
            <mxPoint x="560" y="460" as="targetPoint" />
          </mxGeometry>
        </mxCell>
        <mxCell id="jN3R8YaWKuL3tQfENFTa-56" value="" style="endArrow=none;html=1;rounded=0;exitX=1;exitY=0.5;exitDx=0;exitDy=0;dashed=1;strokeColor=#3465a4;entryX=0;entryY=0.5;entryDx=0;entryDy=0;" parent="1" source="jN3R8YaWKuL3tQfENFTa-33" target="jN3R8YaWKuL3tQfENFTa-35" edge="1">
          <mxGeometry width="50" height="50" relative="1" as="geometry">
            <mxPoint x="160" y="695" as="sourcePoint" />
            <mxPoint x="330" y="290" as="targetPoint" />
          </mxGeometry>
        </mxCell>
        <mxCell id="jN3R8YaWKuL3tQfENFTa-57" value="" style="endArrow=none;html=1;rounded=0;exitX=0.5;exitY=0;exitDx=0;exitDy=0;entryX=1;entryY=0.5;entryDx=0;entryDy=0;" parent="1" source="jN3R8YaWKuL3tQfENFTa-21" target="jN3R8YaWKuL3tQfENFTa-9" edge="1">
          <mxGeometry width="50" height="50" relative="1" as="geometry">
            <mxPoint x="510" y="470" as="sourcePoint" />
            <mxPoint x="510" y="220" as="targetPoint" />
          </mxGeometry>
        </mxCell>
        <mxCell id="jN3R8YaWKuL3tQfENFTa-59" value="" style="endArrow=none;html=1;rounded=0;entryX=0;entryY=0.5;entryDx=0;entryDy=0;dashed=1;strokeColor=#3465a4;exitX=1;exitY=0.5;exitDx=0;exitDy=0;" parent="1" source="jN3R8YaWKuL3tQfENFTa-10" target="jN3R8YaWKuL3tQfENFTa-20" edge="1">
          <mxGeometry width="50" height="50" relative="1" as="geometry">
            <mxPoint x="150" y="90" as="sourcePoint" />
            <mxPoint x="340" y="175" as="targetPoint" />
          </mxGeometry>
        </mxCell>
        <mxCell id="jN3R8YaWKuL3tQfENFTa-60" value="" style="endArrow=none;html=1;rounded=0;exitX=1;exitY=0.5;exitDx=0;exitDy=0;dashed=1;strokeColor=#3465a4;entryX=0;entryY=0.5;entryDx=0;entryDy=0;" parent="1" source="jN3R8YaWKuL3tQfENFTa-11" target="jN3R8YaWKuL3tQfENFTa-20" edge="1">
          <mxGeometry width="50" height="50" relative="1" as="geometry">
            <mxPoint x="160" y="95" as="sourcePoint" />
            <mxPoint x="470" y="260" as="targetPoint" />
          </mxGeometry>
        </mxCell>
        <mxCell id="jN3R8YaWKuL3tQfENFTa-61" value="" style="endArrow=none;html=1;rounded=0;entryX=0;entryY=0.5;entryDx=0;entryDy=0;exitX=1;exitY=0.5;exitDx=0;exitDy=0;dashed=1;strokeColor=#3465a4;" parent="1" source="jN3R8YaWKuL3tQfENFTa-26" target="jN3R8YaWKuL3tQfENFTa-20" edge="1">
          <mxGeometry width="50" height="50" relative="1" as="geometry">
            <mxPoint x="170" y="105" as="sourcePoint" />
            <mxPoint x="480" y="225" as="targetPoint" />
          </mxGeometry>
        </mxCell>
        <mxCell id="jN3R8YaWKuL3tQfENFTa-62" value="" style="endArrow=none;html=1;rounded=0;entryX=0.5;entryY=1;entryDx=0;entryDy=0;exitX=0.5;exitY=0;exitDx=0;exitDy=0;strokeColor=#000000;" parent="1" source="jN3R8YaWKuL3tQfENFTa-21" target="jN3R8YaWKuL3tQfENFTa-20" edge="1">
          <mxGeometry width="50" height="50" relative="1" as="geometry">
            <mxPoint x="180" y="115" as="sourcePoint" />
            <mxPoint x="490" y="235" as="targetPoint" />
          </mxGeometry>
        </mxCell>
        <mxCell id="jN3R8YaWKuL3tQfENFTa-64" value="m_psource_std" style="rounded=0;whiteSpace=wrap;html=1;" parent="1" vertex="1">
          <mxGeometry x="50" y="650" width="120" height="30" as="geometry" />
        </mxCell>
        <mxCell id="jN3R8YaWKuL3tQfENFTa-65" value="" style="endArrow=none;html=1;rounded=0;exitX=1;exitY=0.5;exitDx=0;exitDy=0;dashed=1;strokeColor=#3465a4;entryX=0;entryY=0.5;entryDx=0;entryDy=0;" parent="1" source="jN3R8YaWKuL3tQfENFTa-64" target="jN3R8YaWKuL3tQfENFTa-20" edge="1">
          <mxGeometry width="50" height="50" relative="1" as="geometry">
            <mxPoint x="170" y="735" as="sourcePoint" />
            <mxPoint x="340" y="300" as="targetPoint" />
          </mxGeometry>
        </mxCell>
        <mxCell id="jN3R8YaWKuL3tQfENFTa-66" value="m_species_udist" style="rounded=0;whiteSpace=wrap;html=1;" parent="1" vertex="1">
          <mxGeometry x="50" y="790" width="120" height="30" as="geometry" />
        </mxCell>
        <mxCell id="jN3R8YaWKuL3tQfENFTa-67" value="" style="endArrow=none;html=1;rounded=0;exitX=1;exitY=0.5;exitDx=0;exitDy=0;dashed=1;strokeColor=#3465a4;entryX=0;entryY=0.5;entryDx=0;entryDy=0;" parent="1" source="jN3R8YaWKuL3tQfENFTa-66" target="jN3R8YaWKuL3tQfENFTa-20" edge="1">
          <mxGeometry width="50" height="50" relative="1" as="geometry">
            <mxPoint x="180" y="775" as="sourcePoint" />
            <mxPoint x="470" y="333" as="targetPoint" />
          </mxGeometry>
        </mxCell>
        <mxCell id="jN3R8YaWKuL3tQfENFTa-68" value="" style="endArrow=none;html=1;rounded=0;exitX=0.5;exitY=0;exitDx=0;exitDy=0;strokeColor=#000000;entryX=0.5;entryY=1;entryDx=0;entryDy=0;" parent="1" source="jN3R8YaWKuL3tQfENFTa-28" target="jN3R8YaWKuL3tQfENFTa-20" edge="1">
          <mxGeometry width="50" height="50" relative="1" as="geometry">
            <mxPoint x="160" y="615" as="sourcePoint" />
            <mxPoint x="340" y="300" as="targetPoint" />
          </mxGeometry>
        </mxCell>
        <mxCell id="jN3R8YaWKuL3tQfENFTa-69" value="" style="endArrow=none;html=1;rounded=0;exitX=1;exitY=0.5;exitDx=0;exitDy=0;dashed=1;strokeColor=#3465a4;entryX=0;entryY=0.5;entryDx=0;entryDy=0;" parent="1" source="jN3R8YaWKuL3tQfENFTa-29" target="jN3R8YaWKuL3tQfENFTa-20" edge="1">
          <mxGeometry width="50" height="50" relative="1" as="geometry">
            <mxPoint x="170" y="625" as="sourcePoint" />
            <mxPoint x="350" y="310" as="targetPoint" />
          </mxGeometry>
        </mxCell>
        <mxCell id="jN3R8YaWKuL3tQfENFTa-70" value="" style="endArrow=none;html=1;rounded=0;exitX=1;exitY=0.5;exitDx=0;exitDy=0;dashed=1;strokeColor=#3465a4;entryX=0;entryY=0.5;entryDx=0;entryDy=0;" parent="1" source="jN3R8YaWKuL3tQfENFTa-30" target="jN3R8YaWKuL3tQfENFTa-20" edge="1">
          <mxGeometry width="50" height="50" relative="1" as="geometry">
            <mxPoint x="180" y="635" as="sourcePoint" />
            <mxPoint x="360" y="320" as="targetPoint" />
          </mxGeometry>
        </mxCell>
        <mxCell id="jN3R8YaWKuL3tQfENFTa-71" value="" style="endArrow=none;html=1;rounded=0;exitX=1;exitY=0.5;exitDx=0;exitDy=0;dashed=1;strokeColor=#3465a4;entryX=0;entryY=0.5;entryDx=0;entryDy=0;" parent="1" source="jN3R8YaWKuL3tQfENFTa-12" target="jN3R8YaWKuL3tQfENFTa-20" edge="1">
          <mxGeometry width="50" height="50" relative="1" as="geometry">
            <mxPoint x="190" y="645" as="sourcePoint" />
            <mxPoint x="370" y="330" as="targetPoint" />
          </mxGeometry>
        </mxCell>
        <mxCell id="jN3R8YaWKuL3tQfENFTa-72" value="" style="endArrow=none;html=1;rounded=0;exitX=1;exitY=0.5;exitDx=0;exitDy=0;dashed=1;strokeColor=#3465a4;entryX=0;entryY=0.5;entryDx=0;entryDy=0;" parent="1" source="jN3R8YaWKuL3tQfENFTa-31" target="jN3R8YaWKuL3tQfENFTa-20" edge="1">
          <mxGeometry width="50" height="50" relative="1" as="geometry">
            <mxPoint x="200" y="655" as="sourcePoint" />
            <mxPoint x="380" y="340" as="targetPoint" />
          </mxGeometry>
        </mxCell>
        <mxCell id="jN3R8YaWKuL3tQfENFTa-73" value="" style="endArrow=none;html=1;rounded=0;exitX=1;exitY=0.5;exitDx=0;exitDy=0;dashed=1;strokeColor=#3465a4;entryX=0;entryY=0.5;entryDx=0;entryDy=0;" parent="1" source="jN3R8YaWKuL3tQfENFTa-32" target="jN3R8YaWKuL3tQfENFTa-20" edge="1">
          <mxGeometry width="50" height="50" relative="1" as="geometry">
            <mxPoint x="210" y="665" as="sourcePoint" />
            <mxPoint x="390" y="350" as="targetPoint" />
          </mxGeometry>
        </mxCell>
        <mxCell id="jN3R8YaWKuL3tQfENFTa-74" value="" style="endArrow=none;html=1;rounded=0;exitX=1;exitY=0.5;exitDx=0;exitDy=0;dashed=1;strokeColor=#3465a4;entryX=0;entryY=0.5;entryDx=0;entryDy=0;" parent="1" source="jN3R8YaWKuL3tQfENFTa-33" target="jN3R8YaWKuL3tQfENFTa-20" edge="1">
          <mxGeometry width="50" height="50" relative="1" as="geometry">
            <mxPoint x="220" y="675" as="sourcePoint" />
            <mxPoint x="400" y="360" as="targetPoint" />
          </mxGeometry>
        </mxCell>
        <mxCell id="jN3R8YaWKuL3tQfENFTa-75" value="" style="endArrow=none;html=1;rounded=0;exitX=1;exitY=0.5;exitDx=0;exitDy=0;dashed=1;strokeColor=#3465a4;entryX=0;entryY=0.5;entryDx=0;entryDy=0;" parent="1" source="jN3R8YaWKuL3tQfENFTa-14" target="jN3R8YaWKuL3tQfENFTa-20" edge="1">
          <mxGeometry width="50" height="50" relative="1" as="geometry">
            <mxPoint x="230" y="685" as="sourcePoint" />
            <mxPoint x="410" y="370" as="targetPoint" />
          </mxGeometry>
        </mxCell>
        <mxCell id="jN3R8YaWKuL3tQfENFTa-76" value="m_vdf_comm" style="rounded=0;whiteSpace=wrap;html=1;" parent="1" vertex="1">
          <mxGeometry x="50" y="350" width="120" height="30" as="geometry" />
        </mxCell>
        <mxCell id="jN3R8YaWKuL3tQfENFTa-77" value="" style="endArrow=none;html=1;rounded=0;exitX=1;exitY=0.5;exitDx=0;exitDy=0;dashed=1;strokeColor=#3465a4;entryX=0;entryY=0.5;entryDx=0;entryDy=0;" parent="1" source="jN3R8YaWKuL3tQfENFTa-76" target="jN3R8YaWKuL3tQfENFTa-20" edge="1">
          <mxGeometry width="50" height="50" relative="1" as="geometry">
            <mxPoint x="240" y="695" as="sourcePoint" />
            <mxPoint x="420" y="380" as="targetPoint" />
          </mxGeometry>
        </mxCell>
        <mxCell id="jN3R8YaWKuL3tQfENFTa-78" value="" style="endArrow=none;html=1;rounded=0;exitX=1;exitY=0.5;exitDx=0;exitDy=0;dashed=1;strokeColor=#3465a4;entryX=0;entryY=0.5;entryDx=0;entryDy=0;" parent="1" source="jN3R8YaWKuL3tQfENFTa-34" target="jN3R8YaWKuL3tQfENFTa-20" edge="1">
          <mxGeometry width="50" height="50" relative="1" as="geometry">
            <mxPoint x="250" y="705" as="sourcePoint" />
            <mxPoint x="430" y="390" as="targetPoint" />
          </mxGeometry>
        </mxCell>
        <mxCell id="jN3R8YaWKuL3tQfENFTa-79" value="" style="endArrow=none;html=1;rounded=0;exitX=1;exitY=0.5;exitDx=0;exitDy=0;dashed=1;strokeColor=#3465a4;entryX=0;entryY=0.5;entryDx=0;entryDy=0;" parent="1" source="jN3R8YaWKuL3tQfENFTa-10" target="jN3R8YaWKuL3tQfENFTa-37" edge="1">
          <mxGeometry width="50" height="50" relative="1" as="geometry">
            <mxPoint x="260" y="715" as="sourcePoint" />
            <mxPoint x="440" y="400" as="targetPoint" />
          </mxGeometry>
        </mxCell>
        <mxCell id="jN3R8YaWKuL3tQfENFTa-80" value="" style="endArrow=none;html=1;rounded=0;exitX=1;exitY=0.5;exitDx=0;exitDy=0;dashed=1;strokeColor=#3465a4;entryX=0;entryY=0.5;entryDx=0;entryDy=0;" parent="1" source="jN3R8YaWKuL3tQfENFTa-11" target="jN3R8YaWKuL3tQfENFTa-37" edge="1">
          <mxGeometry width="50" height="50" relative="1" as="geometry">
            <mxPoint x="270" y="725" as="sourcePoint" />
            <mxPoint x="450" y="410" as="targetPoint" />
          </mxGeometry>
        </mxCell>
        <mxCell id="jN3R8YaWKuL3tQfENFTa-81" value="" style="endArrow=none;html=1;rounded=0;exitX=1;exitY=0.5;exitDx=0;exitDy=0;dashed=1;strokeColor=#3465a4;entryX=0;entryY=0.5;entryDx=0;entryDy=0;" parent="1" source="jN3R8YaWKuL3tQfENFTa-36" target="jN3R8YaWKuL3tQfENFTa-37" edge="1">
          <mxGeometry width="50" height="50" relative="1" as="geometry">
            <mxPoint x="280" y="735" as="sourcePoint" />
            <mxPoint x="460" y="420" as="targetPoint" />
          </mxGeometry>
        </mxCell>
        <mxCell id="jN3R8YaWKuL3tQfENFTa-82" value="" style="endArrow=none;html=1;rounded=0;entryX=0.5;entryY=1;entryDx=0;entryDy=0;exitX=0.5;exitY=0;exitDx=0;exitDy=0;" parent="1" source="jN3R8YaWKuL3tQfENFTa-21" target="jN3R8YaWKuL3tQfENFTa-24" edge="1">
          <mxGeometry width="50" height="50" relative="1" as="geometry">
            <mxPoint x="230" y="420" as="sourcePoint" />
            <mxPoint x="280" y="370" as="targetPoint" />
          </mxGeometry>
        </mxCell>
        <mxCell id="jN3R8YaWKuL3tQfENFTa-83" value="" style="endArrow=none;html=1;rounded=0;exitX=1;exitY=0.5;exitDx=0;exitDy=0;dashed=1;strokeColor=#3465a4;entryX=0;entryY=0.5;entryDx=0;entryDy=0;" parent="1" source="jN3R8YaWKuL3tQfENFTa-10" target="jN3R8YaWKuL3tQfENFTa-24" edge="1">
          <mxGeometry width="50" height="50" relative="1" as="geometry">
            <mxPoint x="160" y="45" as="sourcePoint" />
            <mxPoint x="450" y="140" as="targetPoint" />
          </mxGeometry>
        </mxCell>
        <mxCell id="jN3R8YaWKuL3tQfENFTa-85" value="" style="endArrow=none;html=1;rounded=0;exitX=1;exitY=0.5;exitDx=0;exitDy=0;dashed=1;strokeColor=#3465a4;entryX=0;entryY=0.5;entryDx=0;entryDy=0;" parent="1" source="jN3R8YaWKuL3tQfENFTa-21" target="jN3R8YaWKuL3tQfENFTa-24" edge="1">
          <mxGeometry width="50" height="50" relative="1" as="geometry">
            <mxPoint x="180" y="65" as="sourcePoint" />
            <mxPoint x="450" y="140" as="targetPoint" />
          </mxGeometry>
        </mxCell>
        <mxCell id="jN3R8YaWKuL3tQfENFTa-86" value="" style="endArrow=none;html=1;rounded=0;exitX=1;exitY=0.5;exitDx=0;exitDy=0;dashed=1;strokeColor=#3465a4;entryX=0;entryY=0.5;entryDx=0;entryDy=0;" parent="1" source="jN3R8YaWKuL3tQfENFTa-12" target="jN3R8YaWKuL3tQfENFTa-24" edge="1">
          <mxGeometry width="50" height="50" relative="1" as="geometry">
            <mxPoint x="190" y="75" as="sourcePoint" />
            <mxPoint x="450" y="140" as="targetPoint" />
          </mxGeometry>
        </mxCell>
        <mxCell id="jN3R8YaWKuL3tQfENFTa-87" value="" style="endArrow=none;html=1;rounded=0;exitX=1;exitY=0.5;exitDx=0;exitDy=0;strokeColor=#000000;entryX=0;entryY=0.5;entryDx=0;entryDy=0;" parent="1" source="jN3R8YaWKuL3tQfENFTa-35" target="jN3R8YaWKuL3tQfENFTa-24" edge="1">
          <mxGeometry width="50" height="50" relative="1" as="geometry">
            <mxPoint x="200" y="85" as="sourcePoint" />
            <mxPoint x="440" y="140" as="targetPoint" />
          </mxGeometry>
        </mxCell>
        <mxCell id="jN3R8YaWKuL3tQfENFTa-88" value="" style="endArrow=none;html=1;rounded=0;exitX=1;exitY=0.5;exitDx=0;exitDy=0;dashed=1;strokeColor=#3465a4;entryX=0;entryY=0.5;entryDx=0;entryDy=0;" parent="1" source="jN3R8YaWKuL3tQfENFTa-28" target="jN3R8YaWKuL3tQfENFTa-24" edge="1">
          <mxGeometry width="50" height="50" relative="1" as="geometry">
            <mxPoint x="210" y="95" as="sourcePoint" />
            <mxPoint x="450" y="140" as="targetPoint" />
          </mxGeometry>
        </mxCell>
        <mxCell id="jN3R8YaWKuL3tQfENFTa-89" value="" style="endArrow=none;html=1;rounded=0;exitX=1;exitY=0.5;exitDx=0;exitDy=0;dashed=1;strokeColor=#3465a4;entryX=0;entryY=0.5;entryDx=0;entryDy=0;" parent="1" source="jN3R8YaWKuL3tQfENFTa-14" target="jN3R8YaWKuL3tQfENFTa-24" edge="1">
          <mxGeometry width="50" height="50" relative="1" as="geometry">
            <mxPoint x="220" y="105" as="sourcePoint" />
            <mxPoint x="450" y="140" as="targetPoint" />
          </mxGeometry>
        </mxCell>
        <mxCell id="jN3R8YaWKuL3tQfENFTa-90" value="" style="endArrow=none;html=1;rounded=0;exitX=1;exitY=0.5;exitDx=0;exitDy=0;dashed=1;strokeColor=#3465a4;entryX=0;entryY=0.5;entryDx=0;entryDy=0;" parent="1" source="jN3R8YaWKuL3tQfENFTa-26" target="jN3R8YaWKuL3tQfENFTa-24" edge="1">
          <mxGeometry width="50" height="50" relative="1" as="geometry">
            <mxPoint x="230" y="115" as="sourcePoint" />
            <mxPoint x="450" y="140" as="targetPoint" />
          </mxGeometry>
        </mxCell>
        <mxCell id="jN3R8YaWKuL3tQfENFTa-92" value="" style="endArrow=none;html=1;rounded=0;exitX=1;exitY=0.5;exitDx=0;exitDy=0;strokeColor=#000000;entryX=0;entryY=0.5;entryDx=0;entryDy=0;" parent="1" source="jN3R8YaWKuL3tQfENFTa-38" target="jN3R8YaWKuL3tQfENFTa-21" edge="1">
          <mxGeometry width="50" height="50" relative="1" as="geometry">
            <mxPoint x="250" y="135" as="sourcePoint" />
            <mxPoint x="460" y="260" as="targetPoint" />
          </mxGeometry>
        </mxCell>
        <mxCell id="jN3R8YaWKuL3tQfENFTa-93" value="" style="endArrow=none;html=1;rounded=0;exitX=1;exitY=0.5;exitDx=0;exitDy=0;dashed=1;strokeColor=#3465a4;entryX=0;entryY=0.5;entryDx=0;entryDy=0;" parent="1" source="jN3R8YaWKuL3tQfENFTa-20" target="jN3R8YaWKuL3tQfENFTa-21" edge="1">
          <mxGeometry width="50" height="50" relative="1" as="geometry">
            <mxPoint x="260" y="145" as="sourcePoint" />
            <mxPoint x="460" y="260" as="targetPoint" />
          </mxGeometry>
        </mxCell>
        <mxCell id="jN3R8YaWKuL3tQfENFTa-94" value="" style="endArrow=none;html=1;rounded=0;exitX=1;exitY=0.5;exitDx=0;exitDy=0;dashed=1;strokeColor=#3465a4;entryX=0;entryY=0.5;entryDx=0;entryDy=0;" parent="1" source="jN3R8YaWKuL3tQfENFTa-29" target="jN3R8YaWKuL3tQfENFTa-21" edge="1">
          <mxGeometry width="50" height="50" relative="1" as="geometry">
            <mxPoint x="270" y="155" as="sourcePoint" />
            <mxPoint x="460" y="260" as="targetPoint" />
          </mxGeometry>
        </mxCell>
        <mxCell id="jN3R8YaWKuL3tQfENFTa-95" value="" style="endArrow=none;html=1;rounded=0;exitX=1;exitY=0.5;exitDx=0;exitDy=0;dashed=1;strokeColor=#3465a4;entryX=0;entryY=0.5;entryDx=0;entryDy=0;" parent="1" source="jN3R8YaWKuL3tQfENFTa-30" target="jN3R8YaWKuL3tQfENFTa-21" edge="1">
          <mxGeometry width="50" height="50" relative="1" as="geometry">
            <mxPoint x="280" y="165" as="sourcePoint" />
            <mxPoint x="460" y="260" as="targetPoint" />
          </mxGeometry>
        </mxCell>
        <mxCell id="jN3R8YaWKuL3tQfENFTa-96" value="" style="endArrow=none;html=1;rounded=0;exitX=1;exitY=0.5;exitDx=0;exitDy=0;dashed=1;strokeColor=#3465a4;entryX=0;entryY=0.5;entryDx=0;entryDy=0;" parent="1" source="jN3R8YaWKuL3tQfENFTa-12" target="jN3R8YaWKuL3tQfENFTa-21" edge="1">
          <mxGeometry width="50" height="50" relative="1" as="geometry">
            <mxPoint x="290" y="175" as="sourcePoint" />
            <mxPoint x="460" y="260" as="targetPoint" />
          </mxGeometry>
        </mxCell>
        <mxCell id="jN3R8YaWKuL3tQfENFTa-97" value="" style="endArrow=none;html=1;rounded=0;exitX=1;exitY=0.5;exitDx=0;exitDy=0;dashed=1;strokeColor=#3465a4;entryX=0;entryY=0.5;entryDx=0;entryDy=0;" parent="1" source="jN3R8YaWKuL3tQfENFTa-28" target="jN3R8YaWKuL3tQfENFTa-21" edge="1">
          <mxGeometry width="50" height="50" relative="1" as="geometry">
            <mxPoint x="300" y="185" as="sourcePoint" />
            <mxPoint x="460" y="260" as="targetPoint" />
          </mxGeometry>
        </mxCell>
        <mxCell id="jN3R8YaWKuL3tQfENFTa-98" value="" style="endArrow=none;html=1;rounded=0;exitX=1;exitY=0.5;exitDx=0;exitDy=0;dashed=1;strokeColor=#3465a4;entryX=0;entryY=0.5;entryDx=0;entryDy=0;" parent="1" source="jN3R8YaWKuL3tQfENFTa-32" target="jN3R8YaWKuL3tQfENFTa-21" edge="1">
          <mxGeometry width="50" height="50" relative="1" as="geometry">
            <mxPoint x="310" y="195" as="sourcePoint" />
            <mxPoint x="460" y="260" as="targetPoint" />
          </mxGeometry>
        </mxCell>
        <mxCell id="jN3R8YaWKuL3tQfENFTa-99" value="" style="endArrow=none;html=1;rounded=0;exitX=1;exitY=0.5;exitDx=0;exitDy=0;dashed=1;strokeColor=#3465a4;entryX=0;entryY=0.5;entryDx=0;entryDy=0;" parent="1" source="jN3R8YaWKuL3tQfENFTa-20" target="jN3R8YaWKuL3tQfENFTa-21" edge="1">
          <mxGeometry width="50" height="50" relative="1" as="geometry">
            <mxPoint x="320" y="205" as="sourcePoint" />
            <mxPoint x="460" y="260" as="targetPoint" />
          </mxGeometry>
        </mxCell>
        <mxCell id="jN3R8YaWKuL3tQfENFTa-100" value="" style="endArrow=none;html=1;rounded=0;exitX=1;exitY=0.5;exitDx=0;exitDy=0;dashed=1;strokeColor=#3465a4;entryX=0;entryY=0.5;entryDx=0;entryDy=0;" parent="1" source="jN3R8YaWKuL3tQfENFTa-38" target="jN3R8YaWKuL3tQfENFTa-21" edge="1">
          <mxGeometry width="50" height="50" relative="1" as="geometry">
            <mxPoint x="330" y="215" as="sourcePoint" />
            <mxPoint x="460" y="260" as="targetPoint" />
          </mxGeometry>
        </mxCell>
        <mxCell id="jN3R8YaWKuL3tQfENFTa-101" value="" style="endArrow=none;html=1;rounded=0;exitX=1;exitY=0.5;exitDx=0;exitDy=0;dashed=1;strokeColor=#3465a4;entryX=0;entryY=0.5;entryDx=0;entryDy=0;" parent="1" source="jN3R8YaWKuL3tQfENFTa-14" target="jN3R8YaWKuL3tQfENFTa-21" edge="1">
          <mxGeometry width="50" height="50" relative="1" as="geometry">
            <mxPoint x="340" y="225" as="sourcePoint" />
            <mxPoint x="460" y="260" as="targetPoint" />
          </mxGeometry>
        </mxCell>
        <mxCell id="jN3R8YaWKuL3tQfENFTa-102" value="" style="endArrow=none;html=1;rounded=0;exitX=1;exitY=0.5;exitDx=0;exitDy=0;dashed=1;strokeColor=#3465a4;entryX=0;entryY=0.5;entryDx=0;entryDy=0;" parent="1" source="jN3R8YaWKuL3tQfENFTa-26" target="jN3R8YaWKuL3tQfENFTa-21" edge="1">
          <mxGeometry width="50" height="50" relative="1" as="geometry">
            <mxPoint x="350" y="235" as="sourcePoint" />
            <mxPoint x="460" y="260" as="targetPoint" />
          </mxGeometry>
        </mxCell>
        <mxCell id="jN3R8YaWKuL3tQfENFTa-103" value="" style="endArrow=none;html=1;rounded=0;exitX=0.5;exitY=0;exitDx=0;exitDy=0;strokeColor=#000000;entryX=0;entryY=0.5;entryDx=0;entryDy=0;" parent="1" source="jN3R8YaWKuL3tQfENFTa-28" target="jN3R8YaWKuL3tQfENFTa-21" edge="1">
          <mxGeometry width="50" height="50" relative="1" as="geometry">
            <mxPoint x="360" y="245" as="sourcePoint" />
            <mxPoint x="460" y="260" as="targetPoint" />
          </mxGeometry>
        </mxCell>
        <mxCell id="jN3R8YaWKuL3tQfENFTa-104" value="" style="endArrow=none;html=1;rounded=0;exitX=1;exitY=0.5;exitDx=0;exitDy=0;dashed=1;strokeColor=#3465a4;entryX=0;entryY=0.5;entryDx=0;entryDy=0;" parent="1" source="jN3R8YaWKuL3tQfENFTa-76" target="jN3R8YaWKuL3tQfENFTa-21" edge="1">
          <mxGeometry width="50" height="50" relative="1" as="geometry">
            <mxPoint x="370" y="255" as="sourcePoint" />
            <mxPoint x="460" y="260" as="targetPoint" />
          </mxGeometry>
        </mxCell>
        <mxCell id="jN3R8YaWKuL3tQfENFTa-105" value="m_current_define" style="rounded=0;whiteSpace=wrap;html=1;" parent="1" vertex="1">
          <mxGeometry x="50" y="920" width="110" height="30" as="geometry" />
        </mxCell>
        <mxCell id="jN3R8YaWKuL3tQfENFTa-106" value="" style="endArrow=none;html=1;rounded=0;dashed=1;strokeColor=#3465a4;exitX=1;exitY=0.5;exitDx=0;exitDy=0;entryX=0;entryY=0.5;entryDx=0;entryDy=0;" parent="1" source="jN3R8YaWKuL3tQfENFTa-105" target="jN3R8YaWKuL3tQfENFTa-21" edge="1">
          <mxGeometry width="50" height="50" relative="1" as="geometry">
            <mxPoint x="320" y="740" as="sourcePoint" />
            <mxPoint x="460" y="260" as="targetPoint" />
          </mxGeometry>
        </mxCell>
        <mxCell id="jN3R8YaWKuL3tQfENFTa-107" value="&lt;font color=&quot;#cc0000&quot;&gt;m_bremsstrahlung&lt;/font&gt;" style="rounded=0;whiteSpace=wrap;html=1;" parent="1" vertex="1">
          <mxGeometry x="1050" y="740" width="120" height="30" as="geometry" />
        </mxCell>
        <mxCell id="jN3R8YaWKuL3tQfENFTa-112" value="" style="endArrow=none;html=1;rounded=0;exitX=1;exitY=0.5;exitDx=0;exitDy=0;dashed=1;strokeColor=#3465a4;entryX=0;entryY=0.5;entryDx=0;entryDy=0;" parent="1" source="jN3R8YaWKuL3tQfENFTa-10" target="jN3R8YaWKuL3tQfENFTa-38" edge="1">
          <mxGeometry width="50" height="50" relative="1" as="geometry">
            <mxPoint x="160" y="45" as="sourcePoint" />
            <mxPoint x="470" y="95" as="targetPoint" />
          </mxGeometry>
        </mxCell>
        <mxCell id="jN3R8YaWKuL3tQfENFTa-113" value="" style="endArrow=none;html=1;rounded=0;exitX=1;exitY=0.5;exitDx=0;exitDy=0;dashed=1;strokeColor=#3465a4;entryX=0;entryY=0.5;entryDx=0;entryDy=0;" parent="1" source="jN3R8YaWKuL3tQfENFTa-11" target="jN3R8YaWKuL3tQfENFTa-38" edge="1">
          <mxGeometry width="50" height="50" relative="1" as="geometry">
            <mxPoint x="170" y="55" as="sourcePoint" />
            <mxPoint x="480" y="105" as="targetPoint" />
          </mxGeometry>
        </mxCell>
        <mxCell id="jN3R8YaWKuL3tQfENFTa-114" value="" style="endArrow=none;html=1;rounded=0;exitX=1;exitY=0.5;exitDx=0;exitDy=0;dashed=1;strokeColor=#3465a4;entryX=0;entryY=0.5;entryDx=0;entryDy=0;" parent="1" source="jN3R8YaWKuL3tQfENFTa-36" target="jN3R8YaWKuL3tQfENFTa-38" edge="1">
          <mxGeometry width="50" height="50" relative="1" as="geometry">
            <mxPoint x="180" y="65" as="sourcePoint" />
            <mxPoint x="490" y="115" as="targetPoint" />
          </mxGeometry>
        </mxCell>
        <mxCell id="jN3R8YaWKuL3tQfENFTa-116" value="" style="endArrow=none;html=1;rounded=0;exitX=1;exitY=0.5;exitDx=0;exitDy=0;dashed=1;strokeColor=#3465a4;entryX=0;entryY=0.5;entryDx=0;entryDy=0;" parent="1" source="jN3R8YaWKuL3tQfENFTa-28" target="jN3R8YaWKuL3tQfENFTa-107" edge="1">
          <mxGeometry width="50" height="50" relative="1" as="geometry">
            <mxPoint x="200" y="85" as="sourcePoint" />
            <mxPoint x="460" y="500" as="targetPoint" />
          </mxGeometry>
        </mxCell>
        <mxCell id="jN3R8YaWKuL3tQfENFTa-117" value="" style="endArrow=none;html=1;rounded=0;exitX=1;exitY=0.5;exitDx=0;exitDy=0;dashed=1;strokeColor=#3465a4;entryX=0;entryY=0.5;entryDx=0;entryDy=0;" parent="1" source="jN3R8YaWKuL3tQfENFTa-38" target="jN3R8YaWKuL3tQfENFTa-107" edge="1">
          <mxGeometry width="50" height="50" relative="1" as="geometry">
            <mxPoint x="210" y="95" as="sourcePoint" />
            <mxPoint x="460" y="500" as="targetPoint" />
          </mxGeometry>
        </mxCell>
        <mxCell id="jN3R8YaWKuL3tQfENFTa-118" value="" style="endArrow=none;html=1;rounded=0;exitX=1;exitY=0.5;exitDx=0;exitDy=0;dashed=1;strokeColor=#3465a4;entryX=0;entryY=0.5;entryDx=0;entryDy=0;" parent="1" source="jN3R8YaWKuL3tQfENFTa-12" target="jN3R8YaWKuL3tQfENFTa-107" edge="1">
          <mxGeometry width="50" height="50" relative="1" as="geometry">
            <mxPoint x="220" y="105" as="sourcePoint" />
            <mxPoint x="460" y="500" as="targetPoint" />
          </mxGeometry>
        </mxCell>
        <mxCell id="jN3R8YaWKuL3tQfENFTa-119" value="" style="endArrow=none;html=1;rounded=0;exitX=1;exitY=0.5;exitDx=0;exitDy=0;dashed=1;strokeColor=#3465a4;entryX=0;entryY=0.5;entryDx=0;entryDy=0;" parent="1" source="jN3R8YaWKuL3tQfENFTa-13" target="jN3R8YaWKuL3tQfENFTa-107" edge="1">
          <mxGeometry width="50" height="50" relative="1" as="geometry">
            <mxPoint x="230" y="115" as="sourcePoint" />
            <mxPoint x="460" y="500" as="targetPoint" />
          </mxGeometry>
        </mxCell>
        <mxCell id="jN3R8YaWKuL3tQfENFTa-120" value="" style="endArrow=none;html=1;rounded=0;exitX=1;exitY=0.5;exitDx=0;exitDy=0;dashed=1;strokeColor=#3465a4;entryX=0;entryY=0.5;entryDx=0;entryDy=0;" parent="1" source="jN3R8YaWKuL3tQfENFTa-13" target="jN3R8YaWKuL3tQfENFTa-107" edge="1">
          <mxGeometry width="50" height="50" relative="1" as="geometry">
            <mxPoint x="240" y="125" as="sourcePoint" />
            <mxPoint x="460" y="500" as="targetPoint" />
          </mxGeometry>
        </mxCell>
        <mxCell id="jN3R8YaWKuL3tQfENFTa-121" value="" style="endArrow=none;html=1;rounded=0;exitX=1;exitY=0.5;exitDx=0;exitDy=0;strokeColor=#000000;entryX=0;entryY=0.5;entryDx=0;entryDy=0;" parent="1" source="jN3R8YaWKuL3tQfENFTa-20" target="jN3R8YaWKuL3tQfENFTa-107" edge="1">
          <mxGeometry width="50" height="50" relative="1" as="geometry">
            <mxPoint x="250" y="135" as="sourcePoint" />
            <mxPoint x="460" y="500" as="targetPoint" />
          </mxGeometry>
        </mxCell>
        <mxCell id="jN3R8YaWKuL3tQfENFTa-122" value="" style="endArrow=none;html=1;rounded=0;exitX=1;exitY=0.5;exitDx=0;exitDy=0;dashed=1;strokeColor=#3465a4;entryX=0;entryY=0.5;entryDx=0;entryDy=0;" parent="1" source="jN3R8YaWKuL3tQfENFTa-15" target="jN3R8YaWKuL3tQfENFTa-107" edge="1">
          <mxGeometry width="50" height="50" relative="1" as="geometry">
            <mxPoint x="260" y="145" as="sourcePoint" />
            <mxPoint x="460" y="500" as="targetPoint" />
          </mxGeometry>
        </mxCell>
        <mxCell id="jN3R8YaWKuL3tQfENFTa-123" value="" style="endArrow=none;html=1;rounded=0;exitX=1;exitY=0.5;exitDx=0;exitDy=0;dashed=1;strokeColor=#3465a4;entryX=0;entryY=0.5;entryDx=0;entryDy=0;" parent="1" source="jN3R8YaWKuL3tQfENFTa-26" target="jN3R8YaWKuL3tQfENFTa-107" edge="1">
          <mxGeometry width="50" height="50" relative="1" as="geometry">
            <mxPoint x="270" y="155" as="sourcePoint" />
            <mxPoint x="460" y="500" as="targetPoint" />
          </mxGeometry>
        </mxCell>
        <mxCell id="jN3R8YaWKuL3tQfENFTa-124" value="m_species" style="rounded=0;whiteSpace=wrap;html=1;" parent="1" vertex="1">
          <mxGeometry x="50" y="870" width="110" height="30" as="geometry" />
        </mxCell>
        <mxCell id="jN3R8YaWKuL3tQfENFTa-125" value="" style="endArrow=none;html=1;rounded=0;exitX=1;exitY=0.5;exitDx=0;exitDy=0;dashed=1;strokeColor=#3465a4;entryX=0;entryY=0.5;entryDx=0;entryDy=0;" parent="1" source="jN3R8YaWKuL3tQfENFTa-10" target="jN3R8YaWKuL3tQfENFTa-28" edge="1">
          <mxGeometry width="50" height="50" relative="1" as="geometry">
            <mxPoint x="280" y="165" as="sourcePoint" />
            <mxPoint x="450" y="560" as="targetPoint" />
          </mxGeometry>
        </mxCell>
        <mxCell id="jN3R8YaWKuL3tQfENFTa-127" value="" style="endArrow=none;html=1;rounded=0;exitX=1;exitY=0.5;exitDx=0;exitDy=0;dashed=1;strokeColor=#3465a4;entryX=0;entryY=0.5;entryDx=0;entryDy=0;" parent="1" source="jN3R8YaWKuL3tQfENFTa-26" target="jN3R8YaWKuL3tQfENFTa-28" edge="1">
          <mxGeometry width="50" height="50" relative="1" as="geometry">
            <mxPoint x="300" y="185" as="sourcePoint" />
            <mxPoint x="450" y="560" as="targetPoint" />
          </mxGeometry>
        </mxCell>
        <mxCell id="jN3R8YaWKuL3tQfENFTa-128" value="" style="endArrow=none;html=1;rounded=0;exitX=1;exitY=0.5;exitDx=0;exitDy=0;dashed=1;strokeColor=#3465a4;entryX=0;entryY=0.5;entryDx=0;entryDy=0;" parent="1" source="jN3R8YaWKuL3tQfENFTa-11" target="jN3R8YaWKuL3tQfENFTa-28" edge="1">
          <mxGeometry width="50" height="50" relative="1" as="geometry">
            <mxPoint x="310" y="195" as="sourcePoint" />
            <mxPoint x="450" y="560" as="targetPoint" />
          </mxGeometry>
        </mxCell>
        <mxCell id="jN3R8YaWKuL3tQfENFTa-129" value="" style="endArrow=none;html=1;rounded=0;exitX=1;exitY=0.5;exitDx=0;exitDy=0;dashed=1;strokeColor=#3465a4;entryX=0;entryY=0.5;entryDx=0;entryDy=0;" parent="1" source="jN3R8YaWKuL3tQfENFTa-12" target="jN3R8YaWKuL3tQfENFTa-28" edge="1">
          <mxGeometry width="50" height="50" relative="1" as="geometry">
            <mxPoint x="320" y="205" as="sourcePoint" />
            <mxPoint x="450" y="560" as="targetPoint" />
          </mxGeometry>
        </mxCell>
        <mxCell id="jN3R8YaWKuL3tQfENFTa-130" value="" style="endArrow=none;html=1;rounded=0;dashed=1;strokeColor=#3465a4;exitX=1;exitY=0.5;exitDx=0;exitDy=0;entryX=0;entryY=0.5;entryDx=0;entryDy=0;" parent="1" source="jN3R8YaWKuL3tQfENFTa-124" target="jN3R8YaWKuL3tQfENFTa-28" edge="1">
          <mxGeometry width="50" height="50" relative="1" as="geometry">
            <mxPoint x="390" y="640" as="sourcePoint" />
            <mxPoint x="450" y="560" as="targetPoint" />
          </mxGeometry>
        </mxCell>
        <mxCell id="jN3R8YaWKuL3tQfENFTa-131" value="" style="endArrow=none;html=1;rounded=0;exitX=1;exitY=0.5;exitDx=0;exitDy=0;dashed=1;strokeColor=#3465a4;entryX=0;entryY=0.5;entryDx=0;entryDy=0;" parent="1" source="jN3R8YaWKuL3tQfENFTa-36" target="jN3R8YaWKuL3tQfENFTa-28" edge="1">
          <mxGeometry width="50" height="50" relative="1" as="geometry">
            <mxPoint x="340" y="225" as="sourcePoint" />
            <mxPoint x="450" y="560" as="targetPoint" />
          </mxGeometry>
        </mxCell>
        <mxCell id="jN3R8YaWKuL3tQfENFTa-136" value="&lt;font color=&quot;#cc0000&quot;&gt;m_species_push_qed&lt;/font&gt;" style="rounded=0;whiteSpace=wrap;html=1;" parent="1" vertex="1">
          <mxGeometry x="810" y="40" width="130" height="30" as="geometry" />
        </mxCell>
        <mxCell id="jN3R8YaWKuL3tQfENFTa-141" value="" style="endArrow=none;html=1;rounded=0;entryX=0.5;entryY=1;entryDx=0;entryDy=0;exitX=0.5;exitY=0;exitDx=0;exitDy=0;" parent="1" source="jN3R8YaWKuL3tQfENFTa-107" target="jN3R8YaWKuL3tQfENFTa-21" edge="1">
          <mxGeometry width="50" height="50" relative="1" as="geometry">
            <mxPoint x="640" y="470" as="sourcePoint" />
            <mxPoint x="690" y="420" as="targetPoint" />
          </mxGeometry>
        </mxCell>
        <mxCell id="jN3R8YaWKuL3tQfENFTa-163" value="&lt;font color=&quot;#3465a4&quot;&gt;m_parameters&lt;/font&gt;" style="rounded=0;whiteSpace=wrap;html=1;" parent="1" vertex="1">
          <mxGeometry x="1680" y="10" width="100" height="30" as="geometry" />
        </mxCell>
        <mxCell id="jN3R8YaWKuL3tQfENFTa-164" value="&lt;font color=&quot;#3465a4&quot;&gt;m_system&lt;/font&gt;" style="rounded=0;whiteSpace=wrap;html=1;" parent="1" vertex="1">
          <mxGeometry x="1680" y="50" width="100" height="30" as="geometry" />
        </mxCell>
        <mxCell id="jN3R8YaWKuL3tQfENFTa-165" value="&lt;font color=&quot;#3465a4&quot;&gt;m_node_conf&lt;/font&gt;" style="rounded=0;whiteSpace=wrap;html=1;" parent="1" vertex="1">
          <mxGeometry x="1680" y="90" width="100" height="30" as="geometry" />
        </mxCell>
        <mxCell id="jN3R8YaWKuL3tQfENFTa-166" value="&lt;font color=&quot;#3465a4&quot;&gt;m_random&lt;/font&gt;" style="rounded=0;whiteSpace=wrap;html=1;" parent="1" vertex="1">
          <mxGeometry x="1680" y="130" width="100" height="30" as="geometry" />
        </mxCell>
        <mxCell id="jN3R8YaWKuL3tQfENFTa-167" value="&lt;font color=&quot;#3465a4&quot;&gt;m_vdf_define&lt;/font&gt;" style="rounded=0;whiteSpace=wrap;html=1;" parent="1" vertex="1">
          <mxGeometry x="1680" y="300" width="100" height="30" as="geometry" />
        </mxCell>
        <mxCell id="jN3R8YaWKuL3tQfENFTa-168" value="&lt;font color=&quot;#3465a4&quot;&gt;m_vdf&lt;/font&gt;" style="rounded=0;whiteSpace=wrap;html=1;" parent="1" vertex="1">
          <mxGeometry x="1680" y="260" width="100" height="30" as="geometry" />
        </mxCell>
        <mxCell id="jN3R8YaWKuL3tQfENFTa-169" value="m_species_define" style="rounded=0;whiteSpace=wrap;html=1;" parent="1" vertex="1">
          <mxGeometry x="1680" y="820" width="100" height="30" as="geometry" />
        </mxCell>
        <mxCell id="jN3R8YaWKuL3tQfENFTa-170" value="m_psource_udist" style="rounded=0;whiteSpace=wrap;html=1;" parent="1" vertex="1">
          <mxGeometry x="1680" y="680" width="100" height="30" as="geometry" />
        </mxCell>
        <mxCell id="jN3R8YaWKuL3tQfENFTa-171" value="m_space" style="rounded=0;whiteSpace=wrap;html=1;" parent="1" vertex="1">
          <mxGeometry x="1680" y="470" width="100" height="30" as="geometry" />
        </mxCell>
        <mxCell id="jN3R8YaWKuL3tQfENFTa-172" value="m_grid_define" style="rounded=0;whiteSpace=wrap;html=1;" parent="1" vertex="1">
          <mxGeometry x="1680" y="430" width="100" height="30" as="geometry" />
        </mxCell>
        <mxCell id="jN3R8YaWKuL3tQfENFTa-173" value="m_restart" style="rounded=0;whiteSpace=wrap;html=1;" parent="1" vertex="1">
          <mxGeometry x="1680" y="770" width="100" height="30" as="geometry" />
        </mxCell>
        <mxCell id="jN3R8YaWKuL3tQfENFTa-174" value="m_timestep" style="rounded=0;whiteSpace=wrap;html=1;" parent="1" vertex="1">
          <mxGeometry x="1680" y="510" width="100" height="30" as="geometry" />
        </mxCell>
        <mxCell id="jN3R8YaWKuL3tQfENFTa-175" value="m_emf_define" style="rounded=0;whiteSpace=wrap;html=1;" parent="1" vertex="1">
          <mxGeometry x="1680" y="640" width="100" height="30" as="geometry" />
        </mxCell>
        <mxCell id="jN3R8YaWKuL3tQfENFTa-176" value="m_input_file" style="rounded=0;whiteSpace=wrap;html=1;" parent="1" vertex="1">
          <mxGeometry x="1680" y="210" width="100" height="30" as="geometry" />
        </mxCell>
        <mxCell id="jN3R8YaWKuL3tQfENFTa-177" value="m_math" style="rounded=0;whiteSpace=wrap;html=1;" parent="1" vertex="1">
          <mxGeometry x="1680" y="170" width="100" height="30" as="geometry" />
        </mxCell>
        <mxCell id="jN3R8YaWKuL3tQfENFTa-178" value="m_species_charge" style="rounded=0;whiteSpace=wrap;html=1;" parent="1" vertex="1">
          <mxGeometry x="1680" y="900" width="110" height="30" as="geometry" />
        </mxCell>
        <mxCell id="jN3R8YaWKuL3tQfENFTa-179" value="m_psource_std" style="rounded=0;whiteSpace=wrap;html=1;" parent="1" vertex="1">
          <mxGeometry x="1680" y="720" width="120" height="30" as="geometry" />
        </mxCell>
        <mxCell id="jN3R8YaWKuL3tQfENFTa-180" value="m_species_udist" style="rounded=0;whiteSpace=wrap;html=1;" parent="1" vertex="1">
          <mxGeometry x="1680" y="860" width="120" height="30" as="geometry" />
        </mxCell>
        <mxCell id="jN3R8YaWKuL3tQfENFTa-181" value="m_vdf_comm" style="rounded=0;whiteSpace=wrap;html=1;" parent="1" vertex="1">
          <mxGeometry x="1680" y="340" width="120" height="30" as="geometry" />
        </mxCell>
        <mxCell id="jN3R8YaWKuL3tQfENFTa-182" value="m_current_define" style="rounded=0;whiteSpace=wrap;html=1;" parent="1" vertex="1">
          <mxGeometry x="1680" y="980" width="110" height="30" as="geometry" />
        </mxCell>
        <mxCell id="jN3R8YaWKuL3tQfENFTa-183" value="m_species" style="rounded=0;whiteSpace=wrap;html=1;" parent="1" vertex="1">
          <mxGeometry x="1680" y="940" width="110" height="30" as="geometry" />
        </mxCell>
        <mxCell id="jN3R8YaWKuL3tQfENFTa-185" value="" style="endArrow=none;html=1;rounded=0;exitX=1;exitY=0.5;exitDx=0;exitDy=0;dashed=1;strokeColor=#3465a4;entryX=0;entryY=0.5;entryDx=0;entryDy=0;" parent="1" source="jN3R8YaWKuL3tQfENFTa-31" target="jN3R8YaWKuL3tQfENFTa-28" edge="1">
          <mxGeometry width="50" height="50" relative="1" as="geometry">
            <mxPoint x="150" y="715" as="sourcePoint" />
            <mxPoint x="840" y="369" as="targetPoint" />
          </mxGeometry>
        </mxCell>
        <mxCell id="jN3R8YaWKuL3tQfENFTa-186" value="" style="endArrow=none;html=1;rounded=0;exitX=0.5;exitY=1;exitDx=0;exitDy=0;entryX=0.5;entryY=0;entryDx=0;entryDy=0;" parent="1" source="jN3R8YaWKuL3tQfENFTa-9" target="jN3R8YaWKuL3tQfENFTa-37" edge="1">
          <mxGeometry width="50" height="50" relative="1" as="geometry">
            <mxPoint x="590" y="15" as="sourcePoint" />
            <mxPoint x="895" y="220" as="targetPoint" />
          </mxGeometry>
        </mxCell>
        <mxCell id="jN3R8YaWKuL3tQfENFTa-37" value="&lt;font color=&quot;#cc0000&quot;&gt;m_qed&lt;/font&gt;" style="rounded=0;whiteSpace=wrap;html=1;" parent="1" vertex="1">
          <mxGeometry x="355" y="200" width="90" height="30" as="geometry" />
        </mxCell>
        <mxCell id="jN3R8YaWKuL3tQfENFTa-187" value="" style="endArrow=none;html=1;rounded=0;exitX=1;exitY=0.5;exitDx=0;exitDy=0;dashed=1;strokeColor=#3465a4;entryX=0;entryY=0.5;entryDx=0;entryDy=0;" parent="1" source="jN3R8YaWKuL3tQfENFTa-38" target="jN3R8YaWKuL3tQfENFTa-35" edge="1">
          <mxGeometry width="50" height="50" relative="1" as="geometry">
            <mxPoint x="150" y="155" as="sourcePoint" />
            <mxPoint x="1040" y="145" as="targetPoint" />
          </mxGeometry>
        </mxCell>
        <mxCell id="jN3R8YaWKuL3tQfENFTa-35" value="&lt;font color=&quot;#cc0000&quot;&gt;m_photons&lt;/font&gt;" style="rounded=0;whiteSpace=wrap;html=1;" parent="1" vertex="1">
          <mxGeometry x="770" y="350" width="90" height="30" as="geometry" />
        </mxCell>
        <mxCell id="jN3R8YaWKuL3tQfENFTa-188" value="" style="endArrow=none;html=1;rounded=0;exitX=1;exitY=0.5;exitDx=0;exitDy=0;dashed=1;strokeColor=#3465a4;entryX=0;entryY=0.5;entryDx=0;entryDy=0;" parent="1" source="jN3R8YaWKuL3tQfENFTa-10" target="jN3R8YaWKuL3tQfENFTa-38" edge="1">
          <mxGeometry width="50" height="50" relative="1" as="geometry">
            <mxPoint x="150" y="35" as="sourcePoint" />
            <mxPoint x="840" y="369" as="targetPoint" />
          </mxGeometry>
        </mxCell>
        <mxCell id="jN3R8YaWKuL3tQfENFTa-189" value="" style="endArrow=none;html=1;rounded=0;exitX=1;exitY=0.5;exitDx=0;exitDy=0;dashed=1;strokeColor=#3465a4;entryX=0;entryY=0.5;entryDx=0;entryDy=0;" parent="1" source="jN3R8YaWKuL3tQfENFTa-14" target="jN3R8YaWKuL3tQfENFTa-20" edge="1">
          <mxGeometry width="50" height="50" relative="1" as="geometry">
            <mxPoint x="150" y="325" as="sourcePoint" />
            <mxPoint x="825" y="625" as="targetPoint" />
          </mxGeometry>
        </mxCell>
        <mxCell id="jN3R8YaWKuL3tQfENFTa-190" value="" style="endArrow=none;html=1;rounded=0;dashed=1;strokeColor=#3465a4;exitX=0;exitY=0.5;exitDx=0;exitDy=0;entryX=1;entryY=0.5;entryDx=0;entryDy=0;" parent="1" source="jN3R8YaWKuL3tQfENFTa-164" target="jN3R8YaWKuL3tQfENFTa-132" edge="1">
          <mxGeometry width="50" height="50" relative="1" as="geometry">
            <mxPoint x="170" y="895" as="sourcePoint" />
            <mxPoint x="550" y="865" as="targetPoint" />
          </mxGeometry>
        </mxCell>
        <mxCell id="jN3R8YaWKuL3tQfENFTa-191" value="" style="endArrow=none;html=1;rounded=0;dashed=1;strokeColor=#3465a4;exitX=0;exitY=0.5;exitDx=0;exitDy=0;entryX=1;entryY=0.5;entryDx=0;entryDy=0;" parent="1" source="jN3R8YaWKuL3tQfENFTa-163" target="jN3R8YaWKuL3tQfENFTa-132" edge="1">
          <mxGeometry width="50" height="50" relative="1" as="geometry">
            <mxPoint x="1430" y="85" as="sourcePoint" />
            <mxPoint x="1235" y="185" as="targetPoint" />
          </mxGeometry>
        </mxCell>
        <mxCell id="jN3R8YaWKuL3tQfENFTa-192" value="" style="endArrow=none;html=1;rounded=0;dashed=1;strokeColor=#3465a4;exitX=0;exitY=0.5;exitDx=0;exitDy=0;entryX=1;entryY=0.5;entryDx=0;entryDy=0;" parent="1" source="jN3R8YaWKuL3tQfENFTa-176" target="jN3R8YaWKuL3tQfENFTa-132" edge="1">
          <mxGeometry width="50" height="50" relative="1" as="geometry">
            <mxPoint x="1440" y="95" as="sourcePoint" />
            <mxPoint x="1245" y="195" as="targetPoint" />
          </mxGeometry>
        </mxCell>
        <mxCell id="jN3R8YaWKuL3tQfENFTa-193" value="" style="endArrow=none;html=1;rounded=0;dashed=1;strokeColor=#3465a4;exitX=0;exitY=0.5;exitDx=0;exitDy=0;entryX=1;entryY=0.5;entryDx=0;entryDy=0;" parent="1" source="jN3R8YaWKuL3tQfENFTa-167" target="jN3R8YaWKuL3tQfENFTa-132" edge="1">
          <mxGeometry width="50" height="50" relative="1" as="geometry">
            <mxPoint x="1450" y="105" as="sourcePoint" />
            <mxPoint x="1255" y="205" as="targetPoint" />
          </mxGeometry>
        </mxCell>
        <mxCell id="jN3R8YaWKuL3tQfENFTa-194" value="m_vdf_report" style="rounded=0;whiteSpace=wrap;html=1;" parent="1" vertex="1">
          <mxGeometry x="1680" y="380" width="120" height="30" as="geometry" />
        </mxCell>
        <mxCell id="jN3R8YaWKuL3tQfENFTa-195" value="" style="endArrow=none;html=1;rounded=0;dashed=1;strokeColor=#3465a4;exitX=0;exitY=0.5;exitDx=0;exitDy=0;entryX=1;entryY=0.5;entryDx=0;entryDy=0;" parent="1" source="jN3R8YaWKuL3tQfENFTa-194" target="jN3R8YaWKuL3tQfENFTa-132" edge="1">
          <mxGeometry width="50" height="50" relative="1" as="geometry">
            <mxPoint x="1460" y="115" as="sourcePoint" />
            <mxPoint x="1265" y="215" as="targetPoint" />
          </mxGeometry>
        </mxCell>
        <mxCell id="jN3R8YaWKuL3tQfENFTa-196" value="" style="endArrow=none;html=1;rounded=0;dashed=1;strokeColor=#3465a4;exitX=0;exitY=0.5;exitDx=0;exitDy=0;entryX=1;entryY=0.5;entryDx=0;entryDy=0;" parent="1" source="jN3R8YaWKuL3tQfENFTa-181" target="jN3R8YaWKuL3tQfENFTa-132" edge="1">
          <mxGeometry width="50" height="50" relative="1" as="geometry">
            <mxPoint x="1470" y="125" as="sourcePoint" />
            <mxPoint x="1275" y="225" as="targetPoint" />
          </mxGeometry>
        </mxCell>
        <mxCell id="jN3R8YaWKuL3tQfENFTa-198" value="m_particles_define" style="rounded=0;whiteSpace=wrap;html=1;" parent="1" vertex="1">
          <mxGeometry x="1680" y="550" width="120" height="30" as="geometry" />
        </mxCell>
        <mxCell id="jN3R8YaWKuL3tQfENFTa-199" value="" style="endArrow=none;html=1;rounded=0;dashed=1;strokeColor=#3465a4;exitX=0;exitY=0.5;exitDx=0;exitDy=0;entryX=1;entryY=0.5;entryDx=0;entryDy=0;" parent="1" source="jN3R8YaWKuL3tQfENFTa-198" target="jN3R8YaWKuL3tQfENFTa-132" edge="1">
          <mxGeometry width="50" height="50" relative="1" as="geometry">
            <mxPoint x="1490" y="145" as="sourcePoint" />
            <mxPoint x="1295" y="245" as="targetPoint" />
          </mxGeometry>
        </mxCell>
        <mxCell id="jN3R8YaWKuL3tQfENFTa-200" value="m_particles" style="rounded=0;whiteSpace=wrap;html=1;" parent="1" vertex="1">
          <mxGeometry x="1680" y="590" width="100" height="30" as="geometry" />
        </mxCell>
        <mxCell id="jN3R8YaWKuL3tQfENFTa-201" value="" style="endArrow=none;html=1;rounded=0;dashed=1;strokeColor=#3465a4;exitX=0;exitY=0.5;exitDx=0;exitDy=0;entryX=1;entryY=0.5;entryDx=0;entryDy=0;" parent="1" source="jN3R8YaWKuL3tQfENFTa-200" target="jN3R8YaWKuL3tQfENFTa-132" edge="1">
          <mxGeometry width="50" height="50" relative="1" as="geometry">
            <mxPoint x="1500" y="155" as="sourcePoint" />
            <mxPoint x="1305" y="255" as="targetPoint" />
          </mxGeometry>
        </mxCell>
        <mxCell id="jN3R8YaWKuL3tQfENFTa-204" value="" style="endArrow=none;html=1;rounded=0;dashed=1;strokeColor=#3465a4;exitX=0;exitY=0.5;exitDx=0;exitDy=0;entryX=1;entryY=0.5;entryDx=0;entryDy=0;" parent="1" source="jN3R8YaWKuL3tQfENFTa-171" target="jN3R8YaWKuL3tQfENFTa-132" edge="1">
          <mxGeometry width="50" height="50" relative="1" as="geometry">
            <mxPoint x="1430" y="245" as="sourcePoint" />
            <mxPoint x="1235" y="185" as="targetPoint" />
          </mxGeometry>
        </mxCell>
        <mxCell id="jN3R8YaWKuL3tQfENFTa-205" value="" style="endArrow=none;html=1;rounded=0;dashed=1;strokeColor=#3465a4;exitX=0;exitY=0.5;exitDx=0;exitDy=0;entryX=1;entryY=0.5;entryDx=0;entryDy=0;" parent="1" source="jN3R8YaWKuL3tQfENFTa-175" target="jN3R8YaWKuL3tQfENFTa-132" edge="1">
          <mxGeometry width="50" height="50" relative="1" as="geometry">
            <mxPoint x="1440" y="255" as="sourcePoint" />
            <mxPoint x="1245" y="195" as="targetPoint" />
          </mxGeometry>
        </mxCell>
        <mxCell id="jN3R8YaWKuL3tQfENFTa-206" value="" style="endArrow=none;html=1;rounded=0;dashed=1;strokeColor=#3465a4;exitX=0;exitY=0.5;exitDx=0;exitDy=0;entryX=1;entryY=0.5;entryDx=0;entryDy=0;" parent="1" source="jN3R8YaWKuL3tQfENFTa-165" target="jN3R8YaWKuL3tQfENFTa-132" edge="1">
          <mxGeometry width="50" height="50" relative="1" as="geometry">
            <mxPoint x="1450" y="265" as="sourcePoint" />
            <mxPoint x="1255" y="205" as="targetPoint" />
          </mxGeometry>
        </mxCell>
        <mxCell id="jN3R8YaWKuL3tQfENFTa-207" value="" style="endArrow=none;html=1;rounded=0;dashed=1;strokeColor=#3465a4;exitX=0;exitY=0.5;exitDx=0;exitDy=0;entryX=1;entryY=0.5;entryDx=0;entryDy=0;" parent="1" source="jN3R8YaWKuL3tQfENFTa-173" target="jN3R8YaWKuL3tQfENFTa-132" edge="1">
          <mxGeometry width="50" height="50" relative="1" as="geometry">
            <mxPoint x="1460" y="275" as="sourcePoint" />
            <mxPoint x="1265" y="215" as="targetPoint" />
          </mxGeometry>
        </mxCell>
        <mxCell id="jN3R8YaWKuL3tQfENFTa-208" value="" style="endArrow=none;html=1;rounded=0;entryX=0;entryY=0.5;entryDx=0;entryDy=0;exitX=1;exitY=0.5;exitDx=0;exitDy=0;" parent="1" source="jN3R8YaWKuL3tQfENFTa-21" target="jN3R8YaWKuL3tQfENFTa-132" edge="1">
          <mxGeometry width="50" height="50" relative="1" as="geometry">
            <mxPoint x="470" y="35" as="sourcePoint" />
            <mxPoint x="1125" y="185" as="targetPoint" />
          </mxGeometry>
        </mxCell>
        <mxCell id="jN3R8YaWKuL3tQfENFTa-210" value="" style="endArrow=none;html=1;rounded=0;dashed=1;strokeColor=#3465a4;exitX=0;exitY=0.5;exitDx=0;exitDy=0;entryX=1;entryY=0.5;entryDx=0;entryDy=0;" parent="1" source="jN3R8YaWKuL3tQfENFTa-169" target="jN3R8YaWKuL3tQfENFTa-132" edge="1">
          <mxGeometry width="50" height="50" relative="1" as="geometry">
            <mxPoint x="1430" y="245" as="sourcePoint" />
            <mxPoint x="1235" y="185" as="targetPoint" />
          </mxGeometry>
        </mxCell>
        <mxCell id="jN3R8YaWKuL3tQfENFTa-211" value="m_diagnostic_utilities" style="rounded=0;whiteSpace=wrap;html=1;" parent="1" vertex="1">
          <mxGeometry x="1680" y="1020" width="120" height="30" as="geometry" />
        </mxCell>
        <mxCell id="jN3R8YaWKuL3tQfENFTa-212" value="" style="endArrow=none;html=1;rounded=0;dashed=1;strokeColor=#3465a4;exitX=0;exitY=0.5;exitDx=0;exitDy=0;entryX=1;entryY=0.5;entryDx=0;entryDy=0;" parent="1" source="jN3R8YaWKuL3tQfENFTa-211" target="jN3R8YaWKuL3tQfENFTa-132" edge="1">
          <mxGeometry width="50" height="50" relative="1" as="geometry">
            <mxPoint x="1430" y="855" as="sourcePoint" />
            <mxPoint x="1235" y="185" as="targetPoint" />
          </mxGeometry>
        </mxCell>
        <mxCell id="jN3R8YaWKuL3tQfENFTa-214" value="" style="endArrow=none;html=1;rounded=0;dashed=1;strokeColor=#3465a4;exitX=0;exitY=0.5;exitDx=0;exitDy=0;entryX=1;entryY=0.5;entryDx=0;entryDy=0;" parent="1" source="jN3R8YaWKuL3tQfENFTa-172" target="jN3R8YaWKuL3tQfENFTa-132" edge="1">
          <mxGeometry width="50" height="50" relative="1" as="geometry">
            <mxPoint x="1450" y="875" as="sourcePoint" />
            <mxPoint x="1255" y="205" as="targetPoint" />
          </mxGeometry>
        </mxCell>
        <mxCell id="jN3R8YaWKuL3tQfENFTa-215" value="m_species_collisions" style="rounded=0;whiteSpace=wrap;html=1;" parent="1" vertex="1">
          <mxGeometry x="1680" y="1060" width="120" height="30" as="geometry" />
        </mxCell>
        <mxCell id="jN3R8YaWKuL3tQfENFTa-216" value="" style="endArrow=none;html=1;rounded=0;dashed=1;strokeColor=#3465a4;exitX=0;exitY=0.5;exitDx=0;exitDy=0;entryX=1;entryY=0.5;entryDx=0;entryDy=0;" parent="1" source="jN3R8YaWKuL3tQfENFTa-215" target="jN3R8YaWKuL3tQfENFTa-132" edge="1">
          <mxGeometry width="50" height="50" relative="1" as="geometry">
            <mxPoint x="1430" y="1055" as="sourcePoint" />
            <mxPoint x="1235" y="185" as="targetPoint" />
          </mxGeometry>
        </mxCell>
        <mxCell id="jN3R8YaWKuL3tQfENFTa-217" value="" style="endArrow=none;html=1;rounded=0;dashed=1;strokeColor=#3465a4;entryX=1;entryY=0.5;entryDx=0;entryDy=0;exitX=0;exitY=0.5;exitDx=0;exitDy=0;" parent="1" source="jN3R8YaWKuL3tQfENFTa-182" target="jN3R8YaWKuL3tQfENFTa-132" edge="1">
          <mxGeometry width="50" height="50" relative="1" as="geometry">
            <mxPoint x="1150" y="510" as="sourcePoint" />
            <mxPoint x="1245" y="195" as="targetPoint" />
          </mxGeometry>
        </mxCell>
        <mxCell id="jN3R8YaWKuL3tQfENFTa-218" value="m_bnd" style="rounded=0;whiteSpace=wrap;html=1;" parent="1" vertex="1">
          <mxGeometry x="1680" y="1100" width="70" height="20" as="geometry" />
        </mxCell>
        <mxCell id="jN3R8YaWKuL3tQfENFTa-219" value="" style="endArrow=none;html=1;rounded=0;dashed=1;strokeColor=#3465a4;exitX=0;exitY=0.5;exitDx=0;exitDy=0;entryX=1;entryY=0.5;entryDx=0;entryDy=0;" parent="1" source="jN3R8YaWKuL3tQfENFTa-218" target="jN3R8YaWKuL3tQfENFTa-132" edge="1">
          <mxGeometry width="50" height="50" relative="1" as="geometry">
            <mxPoint x="1450" y="1075" as="sourcePoint" />
            <mxPoint x="1255" y="205" as="targetPoint" />
          </mxGeometry>
        </mxCell>
        <mxCell id="jN3R8YaWKuL3tQfENFTa-220" value="" style="endArrow=none;html=1;rounded=0;dashed=1;strokeColor=#3465a4;exitX=0;exitY=0.5;exitDx=0;exitDy=0;entryX=1;entryY=0.5;entryDx=0;entryDy=0;" parent="1" source="jN3R8YaWKuL3tQfENFTa-174" target="jN3R8YaWKuL3tQfENFTa-132" edge="1">
          <mxGeometry width="50" height="50" relative="1" as="geometry">
            <mxPoint x="1460" y="1085" as="sourcePoint" />
            <mxPoint x="1265" y="215" as="targetPoint" />
          </mxGeometry>
        </mxCell>
        <mxCell id="jN3R8YaWKuL3tQfENFTa-221" value="" style="endArrow=none;html=1;rounded=0;dashed=1;strokeColor=#3465a4;exitX=0;exitY=0.5;exitDx=0;exitDy=0;entryX=1;entryY=0.5;entryDx=0;entryDy=0;" parent="1" source="jN3R8YaWKuL3tQfENFTa-183" target="jN3R8YaWKuL3tQfENFTa-132" edge="1">
          <mxGeometry width="50" height="50" relative="1" as="geometry">
            <mxPoint x="1470" y="1095" as="sourcePoint" />
            <mxPoint x="1275" y="225" as="targetPoint" />
          </mxGeometry>
        </mxCell>
        <mxCell id="jN3R8YaWKuL3tQfENFTa-223" value="" style="endArrow=none;html=1;rounded=0;entryX=1;entryY=0.5;entryDx=0;entryDy=0;exitX=0.5;exitY=1;exitDx=0;exitDy=0;" parent="1" source="jN3R8YaWKuL3tQfENFTa-132" target="jN3R8YaWKuL3tQfENFTa-24" edge="1">
          <mxGeometry width="50" height="50" relative="1" as="geometry">
            <mxPoint x="760" y="550" as="sourcePoint" />
            <mxPoint x="810" y="500" as="targetPoint" />
          </mxGeometry>
        </mxCell>
        <mxCell id="jN3R8YaWKuL3tQfENFTa-224" value="" style="endArrow=none;html=1;rounded=0;dashed=1;strokeColor=#3465a4;exitX=0;exitY=0.5;exitDx=0;exitDy=0;entryX=1;entryY=0.5;entryDx=0;entryDy=0;" parent="1" source="jN3R8YaWKuL3tQfENFTa-164" target="jN3R8YaWKuL3tQfENFTa-133" edge="1">
          <mxGeometry width="50" height="50" relative="1" as="geometry">
            <mxPoint x="1430" y="45" as="sourcePoint" />
            <mxPoint x="1290" y="395" as="targetPoint" />
          </mxGeometry>
        </mxCell>
        <mxCell id="jN3R8YaWKuL3tQfENFTa-225" value="" style="endArrow=none;html=1;rounded=0;dashed=1;strokeColor=#3465a4;exitX=0;exitY=0.5;exitDx=0;exitDy=0;entryX=1;entryY=0.5;entryDx=0;entryDy=0;" parent="1" source="jN3R8YaWKuL3tQfENFTa-163" target="jN3R8YaWKuL3tQfENFTa-133" edge="1">
          <mxGeometry width="50" height="50" relative="1" as="geometry">
            <mxPoint x="1440" y="55" as="sourcePoint" />
            <mxPoint x="1300" y="405" as="targetPoint" />
          </mxGeometry>
        </mxCell>
        <mxCell id="jN3R8YaWKuL3tQfENFTa-226" value="" style="endArrow=none;html=1;rounded=0;dashed=1;strokeColor=#3465a4;exitX=0;exitY=0.5;exitDx=0;exitDy=0;entryX=1;entryY=0.5;entryDx=0;entryDy=0;" parent="1" source="jN3R8YaWKuL3tQfENFTa-177" target="jN3R8YaWKuL3tQfENFTa-133" edge="1">
          <mxGeometry width="50" height="50" relative="1" as="geometry">
            <mxPoint x="1450" y="65" as="sourcePoint" />
            <mxPoint x="1310" y="415" as="targetPoint" />
          </mxGeometry>
        </mxCell>
        <mxCell id="jN3R8YaWKuL3tQfENFTa-227" value="" style="endArrow=none;html=1;rounded=0;dashed=1;strokeColor=#3465a4;exitX=0;exitY=0.5;exitDx=0;exitDy=0;entryX=1;entryY=0.5;entryDx=0;entryDy=0;" parent="1" source="jN3R8YaWKuL3tQfENFTa-165" target="jN3R8YaWKuL3tQfENFTa-133" edge="1">
          <mxGeometry width="50" height="50" relative="1" as="geometry">
            <mxPoint x="1460" y="75" as="sourcePoint" />
            <mxPoint x="1320" y="425" as="targetPoint" />
          </mxGeometry>
        </mxCell>
        <mxCell id="jN3R8YaWKuL3tQfENFTa-228" value="" style="endArrow=none;html=1;rounded=0;dashed=1;strokeColor=#3465a4;exitX=0;exitY=0.5;exitDx=0;exitDy=0;entryX=1;entryY=0.5;entryDx=0;entryDy=0;" parent="1" source="jN3R8YaWKuL3tQfENFTa-174" target="jN3R8YaWKuL3tQfENFTa-133" edge="1">
          <mxGeometry width="50" height="50" relative="1" as="geometry">
            <mxPoint x="1470" y="85" as="sourcePoint" />
            <mxPoint x="1330" y="435" as="targetPoint" />
          </mxGeometry>
        </mxCell>
        <mxCell id="jN3R8YaWKuL3tQfENFTa-229" value="" style="endArrow=none;html=1;rounded=0;dashed=1;strokeColor=#3465a4;exitX=0;exitY=0.5;exitDx=0;exitDy=0;entryX=1;entryY=0.5;entryDx=0;entryDy=0;" parent="1" source="jN3R8YaWKuL3tQfENFTa-171" target="jN3R8YaWKuL3tQfENFTa-133" edge="1">
          <mxGeometry width="50" height="50" relative="1" as="geometry">
            <mxPoint x="1480" y="95" as="sourcePoint" />
            <mxPoint x="1340" y="445" as="targetPoint" />
          </mxGeometry>
        </mxCell>
        <mxCell id="jN3R8YaWKuL3tQfENFTa-230" value="" style="endArrow=none;html=1;rounded=0;dashed=1;strokeColor=#3465a4;exitX=0;exitY=0.5;exitDx=0;exitDy=0;entryX=1;entryY=0.5;entryDx=0;entryDy=0;" parent="1" source="jN3R8YaWKuL3tQfENFTa-172" target="jN3R8YaWKuL3tQfENFTa-133" edge="1">
          <mxGeometry width="50" height="50" relative="1" as="geometry">
            <mxPoint x="1490" y="105" as="sourcePoint" />
            <mxPoint x="1350" y="455" as="targetPoint" />
          </mxGeometry>
        </mxCell>
        <mxCell id="jN3R8YaWKuL3tQfENFTa-231" value="" style="endArrow=none;html=1;rounded=0;dashed=1;strokeColor=#3465a4;exitX=0;exitY=0.5;exitDx=0;exitDy=0;entryX=1;entryY=0.5;entryDx=0;entryDy=0;" parent="1" source="jN3R8YaWKuL3tQfENFTa-167" target="jN3R8YaWKuL3tQfENFTa-133" edge="1">
          <mxGeometry width="50" height="50" relative="1" as="geometry">
            <mxPoint x="1500" y="115" as="sourcePoint" />
            <mxPoint x="1360" y="465" as="targetPoint" />
          </mxGeometry>
        </mxCell>
        <mxCell id="jN3R8YaWKuL3tQfENFTa-233" value="" style="endArrow=none;html=1;rounded=0;dashed=1;strokeColor=#3465a4;exitX=0;exitY=0.5;exitDx=0;exitDy=0;entryX=1;entryY=0.5;entryDx=0;entryDy=0;" parent="1" source="jN3R8YaWKuL3tQfENFTa-164" target="jN3R8YaWKuL3tQfENFTa-135" edge="1">
          <mxGeometry width="50" height="50" relative="1" as="geometry">
            <mxPoint x="1510" y="125" as="sourcePoint" />
            <mxPoint x="1370" y="475" as="targetPoint" />
          </mxGeometry>
        </mxCell>
        <mxCell id="jN3R8YaWKuL3tQfENFTa-234" value="" style="endArrow=none;html=1;rounded=0;dashed=1;strokeColor=#3465a4;exitX=0;exitY=0.5;exitDx=0;exitDy=0;entryX=1;entryY=0.5;entryDx=0;entryDy=0;" parent="1" source="jN3R8YaWKuL3tQfENFTa-163" target="jN3R8YaWKuL3tQfENFTa-135" edge="1">
          <mxGeometry width="50" height="50" relative="1" as="geometry">
            <mxPoint x="1520" y="135" as="sourcePoint" />
            <mxPoint x="1380" y="485" as="targetPoint" />
          </mxGeometry>
        </mxCell>
        <mxCell id="jN3R8YaWKuL3tQfENFTa-236" value="" style="endArrow=none;html=1;rounded=0;strokeColor=#000000;exitX=0.5;exitY=0;exitDx=0;exitDy=0;entryX=0.5;entryY=1;entryDx=0;entryDy=0;" parent="1" source="jN3R8YaWKuL3tQfENFTa-132" target="jN3R8YaWKuL3tQfENFTa-135" edge="1">
          <mxGeometry width="50" height="50" relative="1" as="geometry">
            <mxPoint x="1540" y="155" as="sourcePoint" />
            <mxPoint x="1400" y="505" as="targetPoint" />
          </mxGeometry>
        </mxCell>
        <mxCell id="jN3R8YaWKuL3tQfENFTa-237" value="" style="endArrow=none;html=1;rounded=0;dashed=1;strokeColor=#3465a4;exitX=0;exitY=0.5;exitDx=0;exitDy=0;entryX=1;entryY=0.5;entryDx=0;entryDy=0;" parent="1" source="jN3R8YaWKuL3tQfENFTa-174" target="jN3R8YaWKuL3tQfENFTa-135" edge="1">
          <mxGeometry width="50" height="50" relative="1" as="geometry">
            <mxPoint x="1550" y="165" as="sourcePoint" />
            <mxPoint x="1410" y="515" as="targetPoint" />
          </mxGeometry>
        </mxCell>
        <mxCell id="jN3R8YaWKuL3tQfENFTa-239" value="" style="endArrow=none;html=1;rounded=0;dashed=1;strokeColor=#3465a4;exitX=1;exitY=0.5;exitDx=0;exitDy=0;entryX=0;entryY=0.5;entryDx=0;entryDy=0;" parent="1" source="jN3R8YaWKuL3tQfENFTa-135" target="jN3R8YaWKuL3tQfENFTa-171" edge="1">
          <mxGeometry width="50" height="50" relative="1" as="geometry">
            <mxPoint x="1570" y="185" as="sourcePoint" />
            <mxPoint x="1430" y="535" as="targetPoint" />
          </mxGeometry>
        </mxCell>
        <mxCell id="jN3R8YaWKuL3tQfENFTa-240" value="" style="endArrow=none;html=1;rounded=0;dashed=1;strokeColor=#3465a4;exitX=1;exitY=0.5;exitDx=0;exitDy=0;entryX=0;entryY=0.5;entryDx=0;entryDy=0;" parent="1" source="jN3R8YaWKuL3tQfENFTa-135" target="jN3R8YaWKuL3tQfENFTa-172" edge="1">
          <mxGeometry width="50" height="50" relative="1" as="geometry">
            <mxPoint x="1580" y="195" as="sourcePoint" />
            <mxPoint x="1440" y="545" as="targetPoint" />
          </mxGeometry>
        </mxCell>
        <mxCell id="jN3R8YaWKuL3tQfENFTa-241" value="" style="endArrow=none;html=1;rounded=0;dashed=1;strokeColor=#3465a4;exitX=1;exitY=0.5;exitDx=0;exitDy=0;entryX=0;entryY=0.5;entryDx=0;entryDy=0;" parent="1" source="jN3R8YaWKuL3tQfENFTa-135" target="jN3R8YaWKuL3tQfENFTa-167" edge="1">
          <mxGeometry width="50" height="50" relative="1" as="geometry">
            <mxPoint x="1590" y="205" as="sourcePoint" />
            <mxPoint x="1450" y="555" as="targetPoint" />
          </mxGeometry>
        </mxCell>
        <mxCell id="jN3R8YaWKuL3tQfENFTa-244" value="" style="endArrow=none;html=1;rounded=0;exitX=1;exitY=0.5;exitDx=0;exitDy=0;dashed=1;strokeColor=#3465a4;entryX=0;entryY=0.5;entryDx=0;entryDy=0;" parent="1" source="jN3R8YaWKuL3tQfENFTa-10" target="jN3R8YaWKuL3tQfENFTa-9" edge="1">
          <mxGeometry width="50" height="50" relative="1" as="geometry">
            <mxPoint x="150" y="35" as="sourcePoint" />
            <mxPoint x="770" y="155" as="targetPoint" />
          </mxGeometry>
        </mxCell>
        <mxCell id="jN3R8YaWKuL3tQfENFTa-9" value="&lt;font color=&quot;#cc0000&quot;&gt;m_qed_collide&lt;/font&gt;" style="rounded=0;whiteSpace=wrap;html=1;" parent="1" vertex="1">
          <mxGeometry x="350" y="40" width="100" height="30" as="geometry" />
        </mxCell>
        <mxCell id="jN3R8YaWKuL3tQfENFTa-245" value="" style="endArrow=none;html=1;rounded=0;dashed=1;strokeColor=#3465a4;exitX=0;exitY=0.5;exitDx=0;exitDy=0;entryX=1;entryY=0.5;entryDx=0;entryDy=0;" parent="1" source="jN3R8YaWKuL3tQfENFTa-164" target="jN3R8YaWKuL3tQfENFTa-136" edge="1">
          <mxGeometry width="50" height="50" relative="1" as="geometry">
            <mxPoint x="1430" y="45" as="sourcePoint" />
            <mxPoint x="1160" y="285" as="targetPoint" />
          </mxGeometry>
        </mxCell>
        <mxCell id="jN3R8YaWKuL3tQfENFTa-246" value="" style="endArrow=none;html=1;rounded=0;dashed=1;strokeColor=#3465a4;exitX=0;exitY=0.5;exitDx=0;exitDy=0;entryX=1;entryY=0.5;entryDx=0;entryDy=0;" parent="1" source="jN3R8YaWKuL3tQfENFTa-163" target="jN3R8YaWKuL3tQfENFTa-136" edge="1">
          <mxGeometry width="50" height="50" relative="1" as="geometry">
            <mxPoint x="1440" y="55" as="sourcePoint" />
            <mxPoint x="1170" y="295" as="targetPoint" />
          </mxGeometry>
        </mxCell>
        <mxCell id="jN3R8YaWKuL3tQfENFTa-247" value="" style="endArrow=none;html=1;rounded=0;dashed=1;strokeColor=#3465a4;exitX=0;exitY=0.5;exitDx=0;exitDy=0;entryX=1;entryY=0.5;entryDx=0;entryDy=0;" parent="1" source="jN3R8YaWKuL3tQfENFTa-177" target="jN3R8YaWKuL3tQfENFTa-136" edge="1">
          <mxGeometry width="50" height="50" relative="1" as="geometry">
            <mxPoint x="1450" y="65" as="sourcePoint" />
            <mxPoint x="1180" y="305" as="targetPoint" />
          </mxGeometry>
        </mxCell>
        <mxCell id="jN3R8YaWKuL3tQfENFTa-248" value="" style="endArrow=none;html=1;rounded=0;strokeColor=#000000;exitX=0;exitY=0.5;exitDx=0;exitDy=0;entryX=1;entryY=0.5;entryDx=0;entryDy=0;" parent="1" source="jN3R8YaWKuL3tQfENFTa-135" target="jN3R8YaWKuL3tQfENFTa-136" edge="1">
          <mxGeometry width="50" height="50" relative="1" as="geometry">
            <mxPoint x="1460" y="75" as="sourcePoint" />
            <mxPoint x="1190" y="315" as="targetPoint" />
          </mxGeometry>
        </mxCell>
        <mxCell id="jN3R8YaWKuL3tQfENFTa-250" value="" style="endArrow=none;html=1;rounded=0;dashed=1;strokeColor=#3465a4;exitX=0;exitY=0.5;exitDx=0;exitDy=0;entryX=1;entryY=0.5;entryDx=0;entryDy=0;" parent="1" source="jN3R8YaWKuL3tQfENFTa-167" target="jN3R8YaWKuL3tQfENFTa-136" edge="1">
          <mxGeometry width="50" height="50" relative="1" as="geometry">
            <mxPoint x="1430" y="855" as="sourcePoint" />
            <mxPoint x="1090" y="85" as="targetPoint" />
          </mxGeometry>
        </mxCell>
        <mxCell id="jN3R8YaWKuL3tQfENFTa-251" value="" style="endArrow=none;html=1;rounded=0;dashed=1;strokeColor=#3465a4;exitX=0;exitY=0.5;exitDx=0;exitDy=0;entryX=1;entryY=0.5;entryDx=0;entryDy=0;" parent="1" source="jN3R8YaWKuL3tQfENFTa-175" target="jN3R8YaWKuL3tQfENFTa-136" edge="1">
          <mxGeometry width="50" height="50" relative="1" as="geometry">
            <mxPoint x="1440" y="865" as="sourcePoint" />
            <mxPoint x="1100" y="95" as="targetPoint" />
          </mxGeometry>
        </mxCell>
        <mxCell id="jN3R8YaWKuL3tQfENFTa-133" value="&lt;font color=&quot;#cc0000&quot;&gt;m_photons_diagnostics&lt;/font&gt;" style="rounded=0;whiteSpace=wrap;html=1;" parent="1" vertex="1">
          <mxGeometry x="1170" y="270" width="150" height="30" as="geometry" />
        </mxCell>
        <mxCell id="jN3R8YaWKuL3tQfENFTa-254" value="" style="endArrow=none;html=1;rounded=0;strokeColor=#3465a4;exitX=0;exitY=0.5;exitDx=0;exitDy=0;entryX=1;entryY=0.5;entryDx=0;entryDy=0;dashed=1;" parent="1" source="jN3R8YaWKuL3tQfENFTa-164" target="jN3R8YaWKuL3tQfENFTa-134" edge="1">
          <mxGeometry width="50" height="50" relative="1" as="geometry">
            <mxPoint x="1450" y="875" as="sourcePoint" />
            <mxPoint x="1110" y="105" as="targetPoint" />
          </mxGeometry>
        </mxCell>
        <mxCell id="jN3R8YaWKuL3tQfENFTa-255" value="" style="endArrow=none;html=1;rounded=0;dashed=1;strokeColor=#3465a4;exitX=0;exitY=0.5;exitDx=0;exitDy=0;entryX=1;entryY=0.5;entryDx=0;entryDy=0;" parent="1" source="jN3R8YaWKuL3tQfENFTa-165" target="jN3R8YaWKuL3tQfENFTa-132" edge="1">
          <mxGeometry width="50" height="50" relative="1" as="geometry">
            <mxPoint x="1420" y="115" as="sourcePoint" />
            <mxPoint x="1050" y="745" as="targetPoint" />
          </mxGeometry>
        </mxCell>
        <mxCell id="jN3R8YaWKuL3tQfENFTa-256" value="" style="endArrow=none;html=1;rounded=0;exitX=1;exitY=0.5;exitDx=0;exitDy=0;dashed=1;strokeColor=#3465a4;entryX=0;entryY=0.5;entryDx=0;entryDy=0;" parent="1" source="jN3R8YaWKuL3tQfENFTa-34" target="jN3R8YaWKuL3tQfENFTa-20" edge="1">
          <mxGeometry width="50" height="50" relative="1" as="geometry">
            <mxPoint x="150" y="235" as="sourcePoint" />
            <mxPoint x="680" y="539" as="targetPoint" />
          </mxGeometry>
        </mxCell>
        <mxCell id="jN3R8YaWKuL3tQfENFTa-257" value="" style="endArrow=none;html=1;rounded=0;exitX=1;exitY=0.5;exitDx=0;exitDy=0;dashed=1;strokeColor=#3465a4;entryX=0;entryY=0.5;entryDx=0;entryDy=0;" parent="1" source="jN3R8YaWKuL3tQfENFTa-10" target="jN3R8YaWKuL3tQfENFTa-28" edge="1">
          <mxGeometry width="50" height="50" relative="1" as="geometry">
            <mxPoint x="150" y="35" as="sourcePoint" />
            <mxPoint x="700" y="855" as="targetPoint" />
          </mxGeometry>
        </mxCell>
        <mxCell id="jN3R8YaWKuL3tQfENFTa-258" value="" style="endArrow=none;html=1;rounded=0;dashed=1;strokeColor=#3465a4;exitX=0;exitY=0.5;exitDx=0;exitDy=0;entryX=1;entryY=0.5;entryDx=0;entryDy=0;" parent="1" source="jN3R8YaWKuL3tQfENFTa-177" target="jN3R8YaWKuL3tQfENFTa-132" edge="1">
          <mxGeometry width="50" height="50" relative="1" as="geometry">
            <mxPoint x="1420" y="195" as="sourcePoint" />
            <mxPoint x="1140" y="785" as="targetPoint" />
          </mxGeometry>
        </mxCell>
        <mxCell id="jN3R8YaWKuL3tQfENFTa-259" value="" style="endArrow=none;html=1;rounded=0;exitX=1;exitY=0.5;exitDx=0;exitDy=0;dashed=1;strokeColor=#3465a4;entryX=0;entryY=0.5;entryDx=0;entryDy=0;" parent="1" source="jN3R8YaWKuL3tQfENFTa-13" target="jN3R8YaWKuL3tQfENFTa-38" edge="1">
          <mxGeometry width="50" height="50" relative="1" as="geometry">
            <mxPoint x="150" y="155" as="sourcePoint" />
            <mxPoint x="800" y="245" as="targetPoint" />
          </mxGeometry>
        </mxCell>
        <mxCell id="jN3R8YaWKuL3tQfENFTa-260" value="" style="endArrow=none;html=1;rounded=0;exitX=1;exitY=0.5;exitDx=0;exitDy=0;dashed=1;strokeColor=#3465a4;entryX=0;entryY=0.5;entryDx=0;entryDy=0;" parent="1" source="jN3R8YaWKuL3tQfENFTa-11" target="jN3R8YaWKuL3tQfENFTa-20" edge="1">
          <mxGeometry width="50" height="50" relative="1" as="geometry">
            <mxPoint x="150" y="75" as="sourcePoint" />
            <mxPoint x="810" y="639" as="targetPoint" />
          </mxGeometry>
        </mxCell>
        <mxCell id="jN3R8YaWKuL3tQfENFTa-20" value="&lt;font color=&quot;#cc0000&quot;&gt;m_photons_define&lt;/font&gt;" style="rounded=0;whiteSpace=wrap;html=1;" parent="1" vertex="1">
          <mxGeometry x="345" y="570" width="110" height="25" as="geometry" />
        </mxCell>
        <mxCell id="jN3R8YaWKuL3tQfENFTa-261" value="" style="endArrow=none;html=1;rounded=0;exitX=1;exitY=0.5;exitDx=0;exitDy=0;dashed=1;strokeColor=#3465a4;entryX=0;entryY=0.5;entryDx=0;entryDy=0;" parent="1" source="jN3R8YaWKuL3tQfENFTa-11" target="jN3R8YaWKuL3tQfENFTa-21" edge="1">
          <mxGeometry width="50" height="50" relative="1" as="geometry">
            <mxPoint x="150" y="75" as="sourcePoint" />
            <mxPoint x="1030" y="365" as="targetPoint" />
          </mxGeometry>
        </mxCell>
        <mxCell id="jN3R8YaWKuL3tQfENFTa-21" value="&lt;font color=&quot;#cc0000&quot;&gt;m_species_define_qed&lt;/font&gt;" style="rounded=0;whiteSpace=wrap;html=1;" parent="1" vertex="1">
          <mxGeometry x="810" y="180" width="130" height="22.5" as="geometry" />
        </mxCell>
        <mxCell id="jN3R8YaWKuL3tQfENFTa-24" value="&lt;font color=&quot;#cc0000&quot;&gt;m_betheheitler&lt;/font&gt;" style="rounded=0;whiteSpace=wrap;html=1;" parent="1" vertex="1">
          <mxGeometry x="1240" y="650" width="120" height="30" as="geometry" />
        </mxCell>
        <mxCell id="jN3R8YaWKuL3tQfENFTa-262" value="" style="endArrow=none;html=1;rounded=0;dashed=1;strokeColor=#3465a4;exitX=0;exitY=0.5;exitDx=0;exitDy=0;entryX=1;entryY=0.5;entryDx=0;entryDy=0;" parent="1" source="jN3R8YaWKuL3tQfENFTa-169" target="jN3R8YaWKuL3tQfENFTa-135" edge="1">
          <mxGeometry width="50" height="50" relative="1" as="geometry">
            <mxPoint x="1680" y="835" as="sourcePoint" />
            <mxPoint x="730" y="55" as="targetPoint" />
          </mxGeometry>
        </mxCell>
        <mxCell id="jN3R8YaWKuL3tQfENFTa-135" value="&lt;font color=&quot;#cc0000&quot;&gt;m_species_diagnostics_qed&lt;/font&gt;" style="rounded=0;whiteSpace=wrap;html=1;" parent="1" vertex="1">
          <mxGeometry x="1230" y="150" width="160" height="30" as="geometry" />
        </mxCell>
        <mxCell id="jN3R8YaWKuL3tQfENFTa-263" value="" style="endArrow=none;html=1;rounded=0;dashed=1;strokeColor=#3465a4;exitX=0;exitY=0.5;exitDx=0;exitDy=0;entryX=1;entryY=0.5;entryDx=0;entryDy=0;" parent="1" source="jN3R8YaWKuL3tQfENFTa-175" target="jN3R8YaWKuL3tQfENFTa-132" edge="1">
          <mxGeometry width="50" height="50" relative="1" as="geometry">
            <mxPoint x="1680" y="655" as="sourcePoint" />
            <mxPoint x="1080" y="295" as="targetPoint" />
          </mxGeometry>
        </mxCell>
        <mxCell id="jN3R8YaWKuL3tQfENFTa-132" value="&lt;font color=&quot;#cc0000&quot;&gt;m_particles_qed&lt;/font&gt;" style="rounded=0;whiteSpace=wrap;html=1;" parent="1" vertex="1">
          <mxGeometry x="1340" y="480" width="110" height="30" as="geometry" />
        </mxCell>
        <mxCell id="jN3R8YaWKuL3tQfENFTa-264" value="" style="endArrow=none;html=1;rounded=0;exitX=1;exitY=0.5;exitDx=0;exitDy=0;dashed=1;strokeColor=#3465a4;entryX=0;entryY=0.5;entryDx=0;entryDy=0;" parent="1" source="jN3R8YaWKuL3tQfENFTa-15" target="jN3R8YaWKuL3tQfENFTa-28" edge="1">
          <mxGeometry width="50" height="50" relative="1" as="geometry">
            <mxPoint x="150" y="285" as="sourcePoint" />
            <mxPoint x="1070" y="755" as="targetPoint" />
          </mxGeometry>
        </mxCell>
        <mxCell id="jN3R8YaWKuL3tQfENFTa-28" value="&lt;font color=&quot;#cc0000&quot;&gt;m_mergedel&lt;/font&gt;" style="rounded=0;whiteSpace=wrap;html=1;" parent="1" vertex="1">
          <mxGeometry x="350" y="810" width="100" height="30" as="geometry" />
        </mxCell>
        <mxCell id="jN3R8YaWKuL3tQfENFTa-265" value="" style="endArrow=none;html=1;rounded=0;exitX=0.5;exitY=1;exitDx=0;exitDy=0;entryX=0.5;entryY=0;entryDx=0;entryDy=0;" parent="1" source="jN3R8YaWKuL3tQfENFTa-37" target="jN3R8YaWKuL3tQfENFTa-38" edge="1">
          <mxGeometry width="50" height="50" relative="1" as="geometry">
            <mxPoint x="395" y="140" as="sourcePoint" />
            <mxPoint x="400" y="340" as="targetPoint" />
          </mxGeometry>
        </mxCell>
        <mxCell id="jN3R8YaWKuL3tQfENFTa-266" value="" style="endArrow=none;html=1;rounded=0;exitX=1;exitY=0.5;exitDx=0;exitDy=0;dashed=1;strokeColor=#3465a4;entryX=0;entryY=0.5;entryDx=0;entryDy=0;" parent="1" source="jN3R8YaWKuL3tQfENFTa-11" target="jN3R8YaWKuL3tQfENFTa-38" edge="1">
          <mxGeometry width="50" height="50" relative="1" as="geometry">
            <mxPoint x="150" y="75" as="sourcePoint" />
            <mxPoint x="1220" y="785" as="targetPoint" />
          </mxGeometry>
        </mxCell>
        <mxCell id="jN3R8YaWKuL3tQfENFTa-134" value="&lt;font color=&quot;#cc0000&quot;&gt;m_simulation_qed&lt;/font&gt;" style="rounded=0;whiteSpace=wrap;html=1;" parent="1" vertex="1">
          <mxGeometry x="1230" y="70" width="120" height="30" as="geometry" />
        </mxCell>
        <mxCell id="jN3R8YaWKuL3tQfENFTa-267" value="" style="endArrow=none;html=1;rounded=0;exitX=1;exitY=0.5;exitDx=0;exitDy=0;dashed=1;strokeColor=#3465a4;entryX=0;entryY=0.5;entryDx=0;entryDy=0;" parent="1" source="jN3R8YaWKuL3tQfENFTa-33" target="jN3R8YaWKuL3tQfENFTa-38" edge="1">
          <mxGeometry width="50" height="50" relative="1" as="geometry">
            <mxPoint x="150" y="585" as="sourcePoint" />
            <mxPoint x="740" y="129" as="targetPoint" />
          </mxGeometry>
        </mxCell>
        <mxCell id="jN3R8YaWKuL3tQfENFTa-38" value="&lt;font color=&quot;#cc0000&quot;&gt;m_qed_coulomb&lt;/font&gt;" style="rounded=0;whiteSpace=wrap;html=1;" parent="1" vertex="1">
          <mxGeometry x="345" y="370" width="110" height="30" as="geometry" />
        </mxCell>
      </root>
    </mxGraphModel>
  </diagram>
</mxfile>
